<?xml version="1.0" encoding="UTF-8"?>
<svg version="1.1" xmlns="http://www.w3.org/2000/svg" width="5000" height="2500">
<path d="M0 0 C1650 0 3300 0 5000 0 C5000 825 5000 1650 5000 2500 C3350 2500 1700 2500 0 2500 C0 1675 0 850 0 0 Z " fill="#DFE5D5" transform="translate(0,0)"/>
<path d="M0 0 C182.49 0 364.98 0 553 0 C548.81739832 3.34608135 544.59646523 6.60066341 540.3125 9.8125 C539.59553955 10.3502002 538.8785791 10.88790039 538.13989258 11.44189453 C533.77823803 14.70144497 529.37004969 17.87055998 524.88671875 20.9609375 C520.7109356 23.91054346 516.60982686 26.95943807 512.5 30 C506.94444872 34.10810552 501.37839212 38.18264953 495.6953125 42.11328125 C486.04832792 48.86617045 476.55472511 55.84441084 467.0625 62.8125 C466.44761719 63.26375244 465.83273437 63.71500488 465.19921875 64.17993164 C462.47948131 66.1767799 459.7615703 68.17598382 457.046875 70.1796875 C452.5994811 73.44534531 448.11753113 76.60412555 443.5 79.625 C437.21278881 83.77292634 431.17934579 88.2384659 425.13085938 92.72509766 C419.91139038 96.59630715 414.65834533 100.41000659 409.35473633 104.16479492 C405.13430747 107.16350462 400.97333108 110.23736406 396.81811523 113.32568359 C390.14268089 118.28591572 383.48539357 123.08059535 376.39453125 127.4375 C372.94919961 129.68567726 369.83697263 132.29052801 366.66015625 134.8984375 C363.18378952 137.64481826 359.55329637 140.13941319 355.89819336 142.63745117 C349.24161044 147.18802983 342.71914188 151.91659464 336.3125 156.8125 C332.40699307 159.76563946 328.35994026 162.49726724 324.3125 165.25 C318.76537338 169.02656343 313.41331518 172.94346141 308.13916016 177.09326172 C302.684941 181.3350641 296.96211047 185.16231945 291.23925781 189.02929688 C285.16560214 193.15287438 279.26972315 197.4675241 273.42211914 201.90405273 C269.2752256 205.04995392 265.07753048 208.09002503 260.79296875 211.046875 C256.19291112 214.26369852 251.66081117 217.57475724 247.1171875 220.87060547 C243.164589 223.73229336 239.19912688 226.57191332 235.19921875 229.3671875 C234.04691772 230.17313354 234.04691772 230.17313354 232.87133789 230.99536133 C231.41073195 232.01434074 229.94779646 233.02999188 228.48217773 234.04174805 C224.99738547 236.47367916 221.94449615 238.91170287 219 242 C216.09338589 243.88929917 213.10189086 245.46219818 210 247 C209.50113281 246.27039063 209.00226562 245.54078125 208.48828125 244.7890625 C203.98509872 238.24044877 199.40829224 231.75178044 194.75 225.3125 C193.93813232 224.18932373 193.93813232 224.18932373 193.10986328 223.04345703 C190.17790023 218.99259441 187.23344014 214.95125401 184.27734375 210.91796875 C183.37580566 209.68276489 183.37580566 209.68276489 182.45605469 208.42260742 C181.29532585 206.83261401 180.13073231 205.24543326 178.96191406 203.66137695 C178.44209961 202.94812256 177.92228516 202.23486816 177.38671875 201.5 C176.92483154 200.8709375 176.46294434 200.241875 175.98706055 199.59375 C175 198 175 198 175 196 C174.34 196 173.68 196 173 196 C171.66796875 194.27734375 171.66796875 194.27734375 170.1875 191.9375 C168.2439406 188.90994064 166.26602663 185.95380091 164.125 183.0625 C162 180 162 180 162 178 C161.34 178 160.68 178 160 178 C158.95355934 176.36209288 157.9601817 174.68991979 157 173 C156.443125 172.278125 155.88625 171.55625 155.3125 170.8125 C154 169 154 169 154 167 C153.34 167 152.68 167 152 167 C150.31402591 164.65455639 148.73521809 162.30940783 147.1875 159.875 C142.3361516 151.10850176 142.3361516 151.10850176 134.90234375 145.37890625 C130.97108384 145.71682371 130.97108384 145.71682371 127.12109375 146.53125 C124.39966445 147.13267084 121.91018238 147.01737431 119.125 146.9375 C113.31078892 146.8925282 107.88767828 147.52696295 102.15625 148.43359375 C97.02308843 149.18749496 91.8581423 149.5399179 86.6875 149.9375 C78.22036994 150.59717252 69.80248375 151.44910332 61.375 152.5 C53.30009673 153.50124513 45.22667174 154.42931844 37.125 155.1875 C36.26438965 155.27128906 35.4037793 155.35507813 34.51708984 155.44140625 C29.14109455 155.92680454 23.83235706 156.06495653 18.43481445 155.99804688 C14.67473309 156.00106308 12.33568433 156.16196986 9 158 C7.97684876 160.56435348 7.97684876 160.56435348 7.1875 163.5 C6.2890625 166.5078125 6.2890625 166.5078125 5 169 C2.421068 170.11783059 0.20079005 170.36092623 -2.5859375 170.64453125 C-5.27149521 170.86247429 -5.27149521 170.86247429 -8.0625 173.0625 C-10.65474589 176.99267926 -11.30554696 180.31769935 -11 185 C-9.67298898 188.41231406 -8.02640652 190.96039021 -6 194 C-6.76066301 196.36366709 -7.58826927 198.41027851 -8.6484375 200.63671875 C-8.93981598 201.27615921 -9.23119446 201.91559967 -9.53140259 202.57441711 C-10.46638318 204.61832709 -11.4203352 206.65272072 -12.375 208.6875 C-13.01168469 210.07038044 -13.64711769 211.45383791 -14.28125 212.83789062 C-15.83969034 216.23207949 -17.4152667 219.61799344 -19 223 C-22.67898637 221.2977896 -24.66833642 219.34972995 -27.3125 216.25 C-30.07985398 213.07945537 -32.80948546 210.17117454 -36.0625 207.5 C-37.031875 206.675 -38.00125 205.85 -39 205 C-39 204.34 -39 203.68 -39 203 C-39.99 202.67 -40.98 202.34 -42 202 C-42 201.34 -42 200.68 -42 200 C-42.99 199.6596875 -42.99 199.6596875 -44 199.3125 C-46.39741451 198.26363115 -48.22409529 197.24017474 -50.375 195.8125 C-68.62415454 184.22736256 -89.37724726 178.6096447 -110.875 178.75 C-112.05191406 178.74226562 -113.22882812 178.73453125 -114.44140625 178.7265625 C-147.21703035 178.79867608 -172.49754392 193.4473448 -195.125 216.0625 C-197.0878327 218.03730451 -199.04500304 220.01742472 -201 222 C-201.66 221.34 -202.32 220.68 -203 220 C-202.57589844 219.52691406 -202.15179687 219.05382812 -201.71484375 218.56640625 C-198.51032623 214.95340079 -195.45007483 211.30977776 -192.5625 207.4375 C-189.72908697 203.73954892 -186.67263667 200.85269614 -183.10546875 197.87890625 C-179.84711231 194.97117072 -177.04318527 191.68775926 -174.16015625 188.4140625 C-172.29025301 186.32436954 -170.37695179 184.33664403 -168.375 182.375 C-163.88034354 177.9533426 -159.72987019 173.23865554 -155.875 168.25 C-154 166 -154 166 -151.6328125 164.16796875 C-148.97603511 161.9802663 -147.09502106 159.78357227 -145 157.0625 C-140.87027787 151.89689439 -136.38909726 147.27463006 -131.67578125 142.64257812 C-126.57832362 137.62345022 -121.91957916 132.33290905 -117.375 126.8125 C-114.54009037 123.45537018 -111.47876635 120.41402774 -108.3046875 117.37890625 C-105.41328678 114.56886529 -102.8013612 111.86206093 -100.5625 108.5 C-98.17999454 104.9926395 -95.2764511 102.52816349 -92.04296875 99.81640625 C-89.33423054 97.40806348 -87.05559903 94.72882426 -84.71484375 91.96875 C-83.04829644 90.05544739 -81.31172809 88.27541283 -79.5 86.5 C-77.1276321 84.17277007 -74.89772903 81.78061742 -72.73046875 79.26171875 C-69.18606239 75.18541733 -65.52240007 71.23794953 -61.8125 67.3125 C-60.48919194 65.9066183 -59.16628028 64.50036339 -57.84375 63.09375 C-57.1940625 62.4028125 -56.544375 61.711875 -55.875 61 C-51.70939005 56.55668272 -47.58897057 52.07161843 -43.46484375 47.58984375 C-41.94762755 45.94315843 -40.4273525 44.29934569 -38.90625 42.65625 C-26.93670126 29.72419737 -26.93670126 29.72419737 -15.41015625 16.3984375 C-14 15 -14 15 -12 15 C-11.76410156 14.43539063 -11.52820312 13.87078125 -11.28515625 13.2890625 C-9.70765058 10.47928037 -7.75948714 8.60380949 -5.4375 6.375 C-2.30957946 3.48929319 -2.30957946 3.48929319 0 0 Z " fill="#45BBDB" transform="translate(3674,0)"/>
<path d="M0 0 C4.07517586 -0.22975271 5.90732719 -0.3141801 9.19726562 2.28417969 C9.865 3.21488281 10.53273438 4.14558594 11.22070312 5.10449219 C11.96964844 6.12027344 12.71859375 7.13605469 13.49023438 8.18261719 C14.18503906 9.18808594 14.87984375 10.19355469 15.59570312 11.22949219 C16.15644531 12.00808594 16.7171875 12.78667969 17.29492188 13.58886719 C18.40580033 15.14893862 19.50134321 16.72000663 20.58398438 18.29980469 C23.218 22.13574977 25.90778124 25.931207 28.59570312 29.72949219 C32.52200683 35.28206833 36.43052992 40.84567134 40.29101562 46.44433594 C41.61327908 48.34950334 41.61327908 48.34950334 43.59570312 50.22949219 C44.55286218 51.63295121 45.4878578 53.05162134 46.40820312 54.47949219 C48.51574278 57.68661775 50.72341846 60.60579628 53.25195312 63.49902344 C55.04907134 65.81333556 56.50988793 68.28988016 58.03320312 70.79199219 C60.09887342 74.13058651 61.92441747 76.81725049 65.03320312 79.22949219 C65.87882812 79.88949219 66.72445313 80.54949219 67.59570312 81.22949219 C67.59570312 82.21949219 67.59570312 83.20949219 67.59570312 84.22949219 C68.58339657 86.01199871 68.58339657 86.01199871 69.98242188 87.82714844 C70.7629895 88.89328369 70.7629895 88.89328369 71.55932617 89.98095703 C72.12820557 90.74359863 72.69708496 91.50624023 73.28320312 92.29199219 C74.47080267 93.91040873 75.65829957 95.5289006 76.84570312 97.14746094 C77.461875 97.98196777 78.07804687 98.81647461 78.71289062 99.67626953 C81.75688385 103.80413275 84.77183049 107.952804 87.78320312 112.10449219 C88.33516357 112.85867432 88.88712402 113.61285645 89.45581055 114.38989258 C90.2269519 115.4513147 90.2269519 115.4513147 91.01367188 116.53417969 C91.69079224 117.46206299 91.69079224 117.46206299 92.3815918 118.40869141 C93.67320355 120.34571945 94.74262598 122.05695157 95.59570312 124.22949219 C95.17546082 126.16368103 95.17546082 126.16368103 94.22143555 128.20581055 C93.86993942 128.97859848 93.5184433 129.75138641 93.15629578 130.54759216 C92.75860489 131.37976761 92.360914 132.21194305 91.95117188 133.06933594 C91.34635735 134.38448936 91.34635735 134.38448936 90.72932434 135.72621155 C89.42865357 138.54689241 88.10680952 141.35701125 86.78320312 144.16699219 C85.50908023 146.90585862 84.23949598 149.64678915 82.97085571 152.38819885 C82.12231348 154.22179859 81.27202343 156.05459046 80.42001343 157.88658142 C76.99836539 165.27131462 73.75419535 172.72374914 70.58525085 180.22007751 C68.00411489 186.32422047 65.26104585 192.32757888 62.42773438 198.31933594 C60.15604738 203.13856671 57.97020485 207.99638679 55.78320312 212.85449219 C55.20505859 214.1356189 55.20505859 214.1356189 54.61523438 215.44262695 C54.25171875 216.25143311 53.88820313 217.06023926 53.51367188 217.89355469 C53.19164795 218.60979004 52.86962402 219.32602539 52.5378418 220.06396484 C51.8912941 221.55006956 51.27162339 223.04807068 50.67504883 224.55493164 C49.34007144 227.86293375 47.87917584 231.10939513 46.40820312 234.35839844 C46.10503174 235.0299144 45.80186035 235.70143036 45.48950195 236.39329529 C44.8512665 237.80629479 44.21250365 239.21905618 43.57324219 240.6315918 C42.59753859 242.78793574 41.623843 244.94517805 40.65039062 247.10253906 C40.0281141 248.47954611 39.40572218 249.85650102 38.78320312 251.23339844 C38.49356689 251.87515518 38.20393066 252.51691193 37.90551758 253.17811584 C37.14157815 254.86463806 36.36903871 256.54725775 35.59570312 258.22949219 C35.34674789 258.93170395 35.09779266 259.63391571 34.84129333 260.35740662 C33.59570312 262.22949219 33.59570312 262.22949219 31.17762756 263.01477051 C30.1903215 263.14299194 29.20301544 263.27121338 28.18579102 263.40332031 C27.10339142 263.550354 26.02099182 263.6973877 24.90579224 263.84887695 C23.26729813 264.03728149 23.26729813 264.03728149 21.59570312 264.22949219 C20.17244217 264.39952759 20.17244217 264.39952759 18.72042847 264.57299805 C15.86717572 264.89251165 13.01238398 265.17549497 10.15429688 265.44824219 C9.1065358 265.55164917 8.05877472 265.65505615 6.97926331 265.76159668 C3.66426828 266.0880178 0.34877288 266.40896691 -2.96679688 266.72949219 C-6.24642949 267.05015444 -9.52594752 267.37196875 -12.80545044 267.69395447 C-14.94624985 267.90406318 -17.08709825 268.11367331 -19.22799683 268.32276917 C-26.62043276 269.04667429 -34.00871866 269.80432091 -41.3941803 270.59619141 C-45.47806621 271.03319574 -49.56250094 271.43654544 -53.65429688 271.79199219 C-57.59878905 272.13659681 -61.49201547 272.62091508 -65.40429688 273.22949219 C-61.95807695 276.99879523 -58.53423678 279.52136796 -54.07617188 282.01855469 C-52.40429688 283.22949219 -52.40429688 283.22949219 -51.40429688 286.22949219 C-51.62206343 288.86824506 -51.90596836 291.45822997 -52.24804688 294.08105469 C-53.08304408 300.98507526 -53.72309129 307.87653707 -54.18554688 314.81542969 C-54.24564941 315.70063293 -54.30575195 316.58583618 -54.36767578 317.49786377 C-54.61212944 321.13131162 -54.85106195 324.76505216 -55.08154297 328.39941406 C-55.25454845 331.10114351 -55.43806666 333.80199752 -55.62304688 336.50292969 C-55.67207153 337.32264252 -55.72109619 338.14235535 -55.77160645 338.98690796 C-56.291482 346.4019905 -56.291482 346.4019905 -58.40429688 349.22949219 C-61.08946704 350.61509933 -63.67617413 351.7905448 -66.46679688 352.91699219 C-72.78499592 355.58579946 -78.88660599 358.43840107 -84.90429688 361.72949219 C-94.34311758 366.86003589 -104.19626592 371.8268152 -114.40429688 375.22949219 C-116.71679687 374.07714844 -116.71679687 374.07714844 -119.40429688 372.29199219 C-120.38914062 371.63972656 -121.37398437 370.98746094 -122.38867188 370.31542969 C-126.10621428 367.74396901 -129.75037854 365.08330913 -133.38867188 362.40136719 C-136.84483339 359.91221459 -140.35946047 357.52739212 -143.90429688 355.16699219 C-144.53762939 354.74506592 -145.17096191 354.32313965 -145.82348633 353.88842773 C-148.79374148 351.92112581 -151.77719106 349.98343264 -154.80664062 348.10839844 C-155.80824219 347.48835938 -156.80984375 346.86832031 -157.84179688 346.22949219 C-159.17017578 345.42511719 -159.17017578 345.42511719 -160.52539062 344.60449219 C-161.45544922 343.92386719 -161.45544922 343.92386719 -162.40429688 343.22949219 C-162.40429688 342.56949219 -162.40429688 341.90949219 -162.40429688 341.22949219 C-163.72429688 340.89949219 -165.04429687 340.56949219 -166.40429688 340.22949219 C-165.91713324 326.3705267 -164.95918076 312.5547417 -163.90429688 298.72949219 C-163.8385849 297.85525604 -163.77287292 296.9810199 -163.70516968 296.08029175 C-163.51469494 293.55681923 -163.31967488 291.03374194 -163.12304688 288.51074219 C-163.06574905 287.74999893 -163.00845123 286.98925568 -162.94941711 286.20545959 C-162.79068307 284.21150835 -162.59898992 282.22025402 -162.40429688 280.22949219 C-162.32590576 279.29121582 -162.24751465 278.35293945 -162.16674805 277.38623047 C-161.40429688 275.22949219 -161.40429688 275.22949219 -159.2746582 273.69970703 C-158.35450928 273.28414551 -157.43436035 272.86858398 -156.48632812 272.44042969 C-155.47892578 271.97378906 -154.47152344 271.50714844 -153.43359375 271.02636719 C-152.37205078 270.55714844 -151.31050781 270.08792969 -150.21679688 269.60449219 C-148.13994044 268.65404459 -146.06311658 267.7035258 -143.98632812 266.75292969 C-142.52380615 266.09695801 -142.52380615 266.09695801 -141.03173828 265.42773438 C-138.91938531 264.46439779 -136.85129633 263.46157015 -134.79101562 262.39355469 C-132.40429688 261.22949219 -132.40429688 261.22949219 -130.40429688 261.22949219 C-136.63429361 252.31808661 -142.92979285 243.46530535 -149.40429688 234.72949219 C-155.40204303 226.6336062 -161.24051561 218.4367323 -167.02685547 210.18896484 C-173.08581616 201.56981942 -179.26312183 193.04066254 -185.5078125 184.55541992 C-188.58985817 180.36035243 -191.61544611 176.13289367 -194.56445312 171.84277344 C-196.03974454 169.74729583 -197.54771023 167.69478044 -199.08789062 165.64746094 C-199.78579712 164.70688843 -199.78579712 164.70688843 -200.49780273 163.74731445 C-201.41938718 162.50707071 -202.3508955 161.27412593 -203.29321289 160.04956055 C-206.47290419 155.7378967 -206.47290419 155.7378967 -206.1496582 153.3425293 C-205.30480856 150.94745112 -204.35264885 148.6412554 -203.32226562 146.31933594 C-202.89147705 145.34440186 -202.46068848 144.36946777 -202.0168457 143.36499023 C-201.54657959 142.30965088 -201.07631348 141.25431152 -200.59179688 140.16699219 C-200.09897217 139.05428955 -199.60614746 137.94158691 -199.09838867 136.79516602 C-197.53688217 133.27184895 -195.97085188 129.75056703 -194.40429688 126.22949219 C-193.45879006 124.0993701 -192.51347248 121.96916399 -191.56835938 119.83886719 C-189.62249726 115.45455362 -187.67251435 111.07209768 -185.72070312 106.69042969 C-183.61006619 101.94909695 -181.50889401 97.20375207 -179.41569519 92.45469666 C-178.01062074 89.26791233 -176.60250113 86.08247735 -175.19418335 82.89712524 C-174.5145979 81.35800132 -173.83633822 79.81829116 -173.15957642 78.27792358 C-169.37954921 69.67612938 -165.44377259 61.19864071 -161.19212341 52.8192749 C-158.45726224 47.40592222 -156.02134054 41.90248464 -153.71679688 36.29199219 C-146.90429688 19.72949219 -146.90429688 19.72949219 -142.40429688 15.22949219 C-140.52458191 14.78358459 -140.52458191 14.78358459 -138.1784668 14.50317383 C-137.28170731 14.39267197 -136.38494781 14.2821701 -135.46101379 14.1683197 C-133.96920845 13.99943993 -133.96920845 13.99943993 -132.44726562 13.82714844 C-130.86778389 13.6393557 -130.86778389 13.6393557 -129.25639343 13.44776917 C-113.33210687 11.58905212 -97.37226518 10.03518831 -81.42022705 8.43688965 C-76.8970195 7.98357299 -72.37410657 7.52750186 -67.85155296 7.06770515 C-65.7777015 6.8579319 -63.70348823 6.65206746 -61.62922668 6.44639587 C-54.41594969 5.71374103 -47.26654104 4.81418509 -40.110672 3.64356995 C-36.65120117 3.11426789 -33.27568666 2.88454273 -29.77929688 2.72949219 C-22.86468031 2.38089205 -16.01260368 1.70840931 -9.13818359 0.88964844 C-6.09608732 0.54280611 -3.047674 0.29090308 0 0 Z " fill="#A6DFEE" transform="translate(1074.404296875,168.7705078125)"/>
<path d="M0 0 C4.32929657 3.79255496 5.95845772 9.19827984 8.1875 14.375 C8.65091797 15.4165625 9.11433594 16.458125 9.59179688 17.53125 C10.02943359 18.53929688 10.46707031 19.54734375 10.91796875 20.5859375 C11.31781982 21.5042334 11.7176709 22.4225293 12.12963867 23.36865234 C13.04072727 26.12313003 13.27995776 28.12104511 13 31 C12.505 31.7425 12.01 32.485 11.5 33.25 C9.34678036 37.19756935 9.20989498 40.60019951 10 45 C11.94098808 48.63884987 11.94098808 48.63884987 15 51 C16.63690692 51.26964024 18.28551081 51.47300703 19.9375 51.625 C22.49633789 51.95703125 22.49633789 51.95703125 25 53 C26.14990234 55.66918945 26.14990234 55.66918945 27.1484375 58.92578125 C28.55830159 62.29292155 28.55830159 62.29292155 31 65 C37.11599503 67.13608512 43.25694934 67.27992279 49.6875 67.5625 C51.52488229 67.68559939 53.36189011 67.81441197 55.19848633 67.94873047 C58.95667596 68.21636872 62.71489643 68.45432569 66.4765625 68.66748047 C73.98982992 69.10236414 81.48090017 69.76557067 88.97647095 70.43234253 C91.11800683 70.61894473 93.26015449 70.79326538 95.40307617 70.96313477 C102.92057261 71.56792265 110.35675688 72.40289453 117.80981445 73.56811523 C121.20850234 74.02822688 124.57573466 74.25937791 128 74.4375 C138.07090337 75.01298019 148.0244247 76.54679505 158 78 C158.26554687 77.27039062 158.53109375 76.54078125 158.8046875 75.7890625 C159.997167 73.00661034 161.36110538 70.82804414 163.125 68.375 C164.06279297 67.06402344 164.06279297 67.06402344 165.01953125 65.7265625 C165.67308594 64.82679688 166.32664062 63.92703125 167 63 C167.62261719 62.14148437 168.24523438 61.28296875 168.88671875 60.3984375 C170.19123519 58.60439664 171.49727155 56.81146017 172.8046875 55.01953125 C175.36231171 51.50166022 177.90404739 47.97280352 180.4375 44.4375 C180.87489502 43.82938477 181.31229004 43.22126953 181.76293945 42.59472656 C184.05852064 39.40699177 184.05852064 39.40699177 186 36 C190.37713164 36.53437155 192.75346113 38.03448297 196.1875 40.75 C197.24330831 41.57092176 198.30070464 42.38980375 199.359375 43.20703125 C199.93623047 43.65385254 200.51308594 44.10067383 201.10742188 44.56103516 C204.66145672 47.26323864 208.30698909 49.83954417 211.9375 52.4375 C218.23218906 56.96042306 224.41379516 61.58869523 230.53515625 66.34375 C237.91444001 72.03865584 245.4814073 77.4914061 253 83 C253.7213916 83.52867676 254.4427832 84.05735352 255.18603516 84.60205078 C256.21736572 85.35784424 256.21736572 85.35784424 257.26953125 86.12890625 C257.93355957 86.61560791 258.59758789 87.10230957 259.28173828 87.60375977 C260.49710618 88.4941888 261.71288385 89.38405899 262.92919922 90.27319336 C268.58909711 94.41548682 274.19114502 98.63387363 279.7890625 102.859375 C286.85160929 108.18521502 293.95276493 113.43770821 301.17749023 118.54174805 C305.30687003 121.46989731 309.30237165 124.53060794 313.23046875 127.72265625 C315.08227314 129.19345496 315.08227314 129.19345496 318 130 C319.15714215 131.16978851 320.31183157 132.34214357 321.45166016 133.52880859 C324.56796555 136.48983923 328.1782229 138.84461298 331.6875 141.3125 C337.67673895 145.56974353 343.52261845 149.88318586 349.15234375 154.609375 C351.05546338 156.19505991 351.05546338 156.19505991 354 157 C354 157.66 354 158.32 354 159 C354.57999756 159.27295898 355.15999512 159.54591797 355.75756836 159.82714844 C357.97502707 160.98693849 359.87329231 162.27259253 361.87890625 163.765625 C362.6258374 164.31903564 363.37276855 164.87244629 364.14233398 165.44262695 C364.94098877 166.03906006 365.73964355 166.63549316 366.5625 167.25 C368.27336004 168.51963563 369.98429985 169.78916379 371.6953125 171.05859375 C373.01063965 172.03675049 373.01063965 172.03675049 374.35253906 173.03466797 C378.53728612 176.1411982 382.73824722 179.22562365 386.9375 182.3125 C395.46200628 188.57947348 395.46200628 188.57947348 399.61328125 191.73828125 C405.56128099 196.3177551 405.56128099 196.3177551 411.9375 200.25 C415 202 415 202 417.19140625 204.24609375 C420.54602919 207.53539719 424.16340816 210.11892878 428 212.8125 C435.237207 217.96605089 442.36846953 223.2430086 449.4375 228.625 C450.34306641 229.31182861 451.24863281 229.99865723 452.18164062 230.70629883 C453.02791016 231.35236084 453.87417969 231.99842285 454.74609375 232.6640625 C455.49560303 233.23592285 456.2451123 233.8077832 457.01733398 234.39697266 C458.80659318 235.8436265 460.389472 237.36170212 462 239 C417.80311896 239.18308473 373.60627803 239.32406392 329.40909258 239.40852264 C324.1919986 239.41852837 318.97490536 239.42888294 313.7578125 239.43945312 C312.71917704 239.44155161 311.68054159 239.44365009 310.61043233 239.44581217 C293.78981892 239.48062895 276.96942409 239.54370892 260.14894038 239.61722237 C242.89136601 239.69201743 225.63390617 239.7364666 208.37617636 239.75270796 C197.72588768 239.76368861 187.07621682 239.79837701 176.42611831 239.86333174 C169.12431803 239.9055985 161.82283743 239.91840566 154.52092367 239.90801102 C150.30695427 239.90288338 146.09406484 239.91077759 141.88028717 239.9536438 C138.02054643 239.99262158 134.16260998 239.99451647 130.30278558 239.96719116 C128.90826884 239.96381508 127.51363882 239.97393068 126.11934453 239.99906546 C115.71682777 240.1756525 115.71682777 240.1756525 111.4977293 237.28649044 C109.48954313 235.28739874 107.7647161 233.21288442 106 231 C104.62804876 229.72383367 103.23463714 228.46999043 101.8125 227.25 C101.15765625 226.6828125 100.5028125 226.115625 99.828125 225.53125 C98.27357117 224.22914509 96.67235389 222.98307958 95.0625 221.75 C93 220 93 220 92 217 C90.68819655 216.29190825 89.35073458 215.63066498 88 215 C86.65364825 213.93737248 85.34178204 212.82998752 84.0625 211.6875 C83.41410156 211.11386719 82.76570313 210.54023438 82.09765625 209.94921875 C79.66882154 207.69225688 77.34460351 205.34460351 75 203 C72.14277384 200.23113055 69.2612876 197.48852544 66.375 194.75 C65.611875 194.0178125 64.84875 193.285625 64.0625 192.53125 C63.32773438 191.83515625 62.59296875 191.1390625 61.8359375 190.421875 C61.17126465 189.78862305 60.5065918 189.15537109 59.82177734 188.50292969 C57.96686559 186.7890746 57.96686559 186.7890746 55 186 C53.6328125 184.57421875 53.6328125 184.57421875 52.125 182.6875 C47.41090865 177.1262675 42.0250539 172.34261416 36.62353516 167.46630859 C35.09187085 166.08297389 33.56653007 164.69302781 32.04296875 163.30078125 C27.22698638 158.89111101 27.22698638 158.89111101 22 155 C22 154.34 22 153.68 22 153 C21.443125 152.7525 20.88625 152.505 20.3125 152.25 C14.83187067 149.28749766 10.71956077 144.78638044 6.41015625 140.37109375 C3.46247286 137.38330582 0.47641336 134.50239293 -2.70703125 131.765625 C-7.03886862 127.99729084 -11.2123267 124.07827851 -15.375 120.125 C-20.71940692 115.07175956 -26.08689505 110.05778874 -31.58203125 105.16796875 C-33.4688684 103.47621654 -35.33850589 101.77093863 -37.19921875 100.05078125 C-37.74731201 99.54458252 -38.29540527 99.03838379 -38.86010742 98.5168457 C-39.93097745 97.5263268 -41.00022644 96.53405166 -42.06762695 95.53979492 C-44.81906015 92.97238525 -44.81906015 92.97238525 -48 91 C-48 90.34 -48 89.68 -48 89 C-48.59296875 88.73574219 -49.1859375 88.47148437 -49.796875 88.19921875 C-52.08029054 86.95629575 -53.47426723 85.69598354 -55.25 83.8125 C-57.62823921 81.36401744 -60.03799459 79.03928947 -62.625 76.8125 C-66.32714736 73.62173875 -69.91830446 70.32425157 -73.5 67 C-77.6453997 63.15661046 -81.8074865 59.34653378 -86.09765625 55.6640625 C-87.52545501 54.41510507 -88.92460885 53.13327699 -90.30859375 51.8359375 C-91.09363281 51.10632812 -91.87867187 50.37671875 -92.6875 49.625 C-93.39261719 48.95726563 -94.09773438 48.28953125 -94.82421875 47.6015625 C-97.250352 45.81571935 -99.03745666 45.36318395 -102 45 C-100.1875 43.9375 -100.1875 43.9375 -98 43 C-97.01 43.33 -96.02 43.66 -95 44 C-64.14644085 43.87596559 -37.33090175 34.33458103 -14 14 C-12.62860816 12.3645062 -11.28826281 10.70174454 -10 9 C-6.86162238 5.70067993 -3.60477558 2.78082688 0 0 Z " fill="#FEB949" transform="translate(3744,2261)"/>
<path d="M0 0 C0.7446989 0.06305108 1.48939779 0.12610216 2.25666332 0.19106388 C4.66847217 0.40197093 7.07536372 0.64653541 9.48364258 0.89428711 C11.06447063 1.04280152 12.64541426 1.19009082 14.22647095 1.33615112 C19.31226423 1.81741359 24.39183979 2.35269055 29.47192383 2.89038086 C31.35023981 3.0862868 33.22859251 3.28184085 35.10697937 3.47706604 C40.01002628 3.98753046 44.91259606 4.50243631 49.81506348 5.01843262 C55.72875451 5.640047 61.64299418 6.25641491 67.55715466 6.87354374 C72.16798725 7.35476928 76.77874131 7.83670291 81.38923645 8.32115173 C83.0916835 8.49975974 84.79413201 8.67835392 86.49658203 8.85693359 C87.31561666 8.94311164 88.13465128 9.02928968 88.97850513 9.11807919 C93.33712105 9.57436422 97.69677867 10.01506628 102.05892944 10.43630981 C103.42758667 10.56937704 103.42758667 10.56937704 104.82389355 10.70513248 C106.56859955 10.87396016 108.31355071 11.04027968 110.05877399 11.20367336 C110.84284217 11.27967298 111.62691034 11.35567259 112.43473816 11.43397522 C113.12192523 11.49897752 113.8091123 11.56397982 114.51712322 11.63095188 C116.58669229 11.90808642 118.49697764 12.24475097 120.48364258 12.89428711 C121.83300781 14.93432617 121.83300781 14.93432617 123.04223633 17.65991211 C123.50380127 18.68028564 123.96536621 19.70065918 124.44091797 20.75195312 C124.92939209 21.87142334 125.41786621 22.99089355 125.92114258 24.14428711 C126.71688025 25.91931835 127.51262336 27.69434717 128.30863953 29.46925354 C129.14544304 31.34216447 129.97510877 33.21809526 130.80297852 35.0949707 C132.44022363 38.80388296 134.10393738 42.50022386 135.77270508 46.19506836 C144.82035639 66.24581806 153.77306785 86.34433479 162.32763672 106.61108398 C164.01300029 110.57846148 165.7475256 114.49509616 167.66723633 118.35522461 C168.0059375 119.04213379 168.34463867 119.72904297 168.69360352 120.43676758 C169.60093232 122.25369125 170.53157783 124.05892002 171.46411133 125.86303711 C172.48364258 128.89428711 172.48364258 128.89428711 171.99536133 131.34741211 C169.93755035 134.81431847 167.57998593 137.96298567 165.10864258 141.14428711 C159.0806235 149.03141488 153.33217259 157.09229793 147.6628418 165.23999023 C146.70074678 166.58971194 145.68004864 167.89749993 144.64379883 169.19116211 C143.20215065 170.96406649 143.20215065 170.96406649 143.48364258 173.89428711 C142.76563477 174.46663086 142.04762695 175.03897461 141.30786133 175.62866211 C137.85555263 178.39814903 135.74515898 181.49855014 133.29614258 185.14428711 C131.74319509 187.44969368 130.1610545 189.67357186 128.48364258 191.89428711 C127.82364258 191.89428711 127.16364258 191.89428711 126.48364258 191.89428711 C126.23743164 192.60584961 125.9912207 193.31741211 125.73754883 194.05053711 C124.3270121 197.24951137 122.56874377 199.63687324 120.42114258 202.39428711 C117.1475882 206.65875884 113.98236601 210.97251993 110.92114258 215.39428711 C110.16704102 216.45905273 109.41293945 217.52381836 108.63598633 218.62084961 C106.41349859 221.85686586 106.41349859 221.85686586 104.73754883 225.41772461 C102.90342899 228.92256832 101.52623135 231.350332 98.48364258 233.89428711 C92.12573714 235.31019764 85.329286 233.72011564 79.0859375 232.37939453 C76.35676711 231.87063559 73.688906 231.60516432 70.92114258 231.39428711 C69.87700195 231.31178711 68.83286133 231.22928711 67.75708008 231.14428711 C66.6768457 231.06178711 65.59661133 230.97928711 64.48364258 230.89428711 C62.33759604 230.73038857 60.19175163 230.56381671 58.04614258 230.39428711 C57.09868164 230.32209961 56.1512207 230.24991211 55.17504883 230.17553711 C52.48364258 229.89428711 52.48364258 229.89428711 50.05493164 229.40136719 C46.96525222 228.79205612 43.91984061 228.53389339 40.78051758 228.28100586 C39.41267157 228.16854781 38.04483341 228.05599429 36.67700195 227.94335938 C35.59261841 227.85551682 35.59261841 227.85551682 34.48632812 227.76589966 C30.59383347 227.4477651 26.70290443 227.11136638 22.81176758 226.77709961 C17.49913441 226.32110596 12.18626985 225.86881568 6.87231445 225.4284668 C2.15882169 225.03627999 -2.55260177 224.62417885 -7.26330566 224.19985962 C-9.09581858 224.03806335 -10.92893034 223.88290955 -12.76257324 223.73446655 C-15.33859568 223.52493265 -17.9115776 223.29240914 -20.48510742 223.05444336 C-21.25542297 222.99711029 -22.02573853 222.93977722 -22.81939697 222.88070679 C-26.07398926 222.55839165 -28.04362921 222.3631814 -30.4128418 220.01318359 C-30.77700195 219.31394775 -31.14116211 218.61471191 -31.51635742 217.89428711 C-32.07323242 216.88366211 -32.63010742 215.87303711 -33.20385742 214.83178711 C-34.51635742 211.89428711 -34.51635742 211.89428711 -34.51635742 208.89428711 C-35.69198242 209.01803711 -36.86760742 209.14178711 -38.07885742 209.26928711 C-42.71656385 209.3022957 -44.88658173 207.4973102 -48.16870117 204.40209961 C-51.02979905 201.20098721 -50.77431767 198.2454789 -50.75463867 194.13256836 C-50.44232589 191.19887615 -49.02791269 189.39163929 -47.51635742 186.89428711 C-47.81391692 180.4244934 -50.32765598 174.95964058 -52.89135742 169.08178711 C-53.2909668 168.12852539 -53.69057617 167.17526367 -54.10229492 166.19311523 C-54.49416992 165.28368164 -54.88604492 164.37424805 -55.28979492 163.43725586 C-55.64477051 162.61249756 -55.99974609 161.78773926 -56.36547852 160.93798828 C-57.48596178 158.58751637 -57.48596178 158.58751637 -60.51635742 156.89428711 C-60.51635742 155.57428711 -60.51635742 154.25428711 -60.51635742 152.89428711 C-61.47106164 150.1901776 -61.47106164 150.1901776 -62.82495117 147.30053711 C-63.32099854 146.19661621 -63.8170459 145.09269531 -64.328125 143.95532227 C-64.8646167 142.78018066 -65.4011084 141.60503906 -65.95385742 140.39428711 C-66.76342896 138.59096924 -66.76342896 138.59096924 -67.58935547 136.7512207 C-70.13064393 131.0921615 -72.71363245 125.45405559 -75.35229492 119.83959961 C-75.98373413 118.48125 -75.98373413 118.48125 -76.62792969 117.09545898 C-77.4105692 115.4165787 -78.20480363 113.74304001 -79.01220703 112.07592773 C-80.46204999 108.95948677 -81.52197035 106.66774811 -81.49682617 103.20288086 C-80.21892484 100.19395781 -78.53372946 97.90603788 -76.51635742 95.33178711 C-75.71327148 94.29151367 -74.91018555 93.25124023 -74.08276367 92.17944336 C-73.66269043 91.64206543 -73.24261719 91.1046875 -72.80981445 90.55102539 C-70.66813324 87.80783008 -68.5579838 85.04132962 -66.45385742 82.26928711 C-65.32270508 80.79588867 -65.32270508 80.79588867 -64.16870117 79.29272461 C-62.32724894 77.10520835 -62.32724894 77.10520835 -62.51635742 74.89428711 C-61.51635742 73.89428711 -60.51635742 72.89428711 -59.51635742 71.89428711 C-59.20698242 71.25491211 -58.89760742 70.61553711 -58.57885742 69.95678711 C-57.28039352 67.43623953 -55.51638514 65.89431483 -53.51635742 63.89428711 C-52.98010742 62.98678711 -52.44385742 62.07928711 -51.89135742 61.14428711 C-51.43760742 60.40178711 -50.98385742 59.65928711 -50.51635742 58.89428711 C-49.85635742 58.89428711 -49.19635742 58.89428711 -48.51635742 58.89428711 C-48.24823242 58.19303711 -47.98010742 57.49178711 -47.70385742 56.76928711 C-44.39898305 48.76801231 -44.39898305 48.76801231 -41.19213867 45.59350586 C-38.42021772 42.79730531 -36.26806451 39.93397689 -34.01635742 36.70678711 C-33.14457787 35.46677028 -32.27214821 34.22721032 -31.39916992 32.98803711 C-30.93671875 32.32932617 -30.47426758 31.67061523 -29.99780273 30.99194336 C-28.43069385 28.77299156 -26.84747945 26.56640953 -25.25854492 24.36303711 C-24.70521484 23.59540039 -24.15188477 22.82776367 -23.58178711 22.03686523 C-22.4567395 20.48610636 -21.324578 18.94048316 -20.18530273 17.40014648 C-17.75930555 14.10558241 -15.43233751 10.88528585 -13.50854492 7.26928711 C-9.89217958 0.91226822 -7.24929143 -0.79119319 0 0 Z " fill="#FEE5BA" transform="translate(3803.516357421875,2105.105712890625)"/>
<path d="M0 0 C6.46934571 4.93822125 12.45243081 14.35729243 15 22 C15.66 22 16.32 22 17 22 C18.3726682 23.97321053 19.70427617 25.97543152 21 28 C21.99 28.99 21.99 28.99 23 30 C23 30.99 23 31.98 23 33 C23.66 33 24.32 33 25 33 C26.59433816 35.03159135 28.05787606 37.05195863 29.5 39.1875 C29.90347656 39.76564453 30.30695312 40.34378906 30.72265625 40.93945312 C32.9405117 44.17840045 34.71383072 47.28828323 36 51 C36.66 51 37.32 51 38 51 C39.72961775 53.32140936 41.34474457 55.6492342 42.9375 58.0625 C43.93291742 59.54169787 44.93036408 61.01953191 45.9296875 62.49609375 C46.43983398 63.25003418 46.94998047 64.00397461 47.47558594 64.78076172 C49.76631846 68.11560455 52.15510788 71.37381522 54.5625 74.625 C58.22319694 79.57924794 61.85571294 84.55080842 65.4375 89.5625 C65.838479 90.12211426 66.23945801 90.68172852 66.65258789 91.25830078 C67.77612088 92.83338251 68.88824103 94.41658571 70 96 C70.77472656 96.99902344 71.54945313 97.99804688 72.34765625 99.02734375 C74.44861687 102.80708614 74.05112414 103.84233277 73 108 C71.76245893 111.20380139 70.33355212 114.30793965 68.88671875 117.421875 C68.47589554 118.32190247 68.06507233 119.22192993 67.64179993 120.14923096 C66.33042308 123.01928999 65.00947034 125.88480703 63.6875 128.75 C62.37791883 131.60164382 61.07043031 134.4542227 59.76533508 137.30792236 C58.95466599 139.07910561 58.14120422 140.84901447 57.3243866 142.61737061 C55.02694583 147.62082658 52.89113002 152.66117678 50.88766479 157.78971863 C49.55042286 161.11944507 48.0017501 164.33491825 46.4375 167.5625 C42.42331115 175.96383887 38.67133668 184.47380729 34.94506836 193.00610352 C32.3702533 198.90009354 29.7555804 204.77192769 27.07177734 210.6171875 C26.10345065 212.77000494 25.20058776 214.9382568 24.3125 217.125 C23 220 23 220 21 221 C19.46729654 221.23263841 17.92706684 221.41657117 16.38500977 221.57582092 C15.41225601 221.67816544 14.43950226 221.78050995 13.43727112 221.88595581 C11.83056801 222.04887619 11.83056801 222.04887619 10.19140625 222.21508789 C8.50331093 222.3908712 8.50331093 222.3908712 6.78111267 222.57020569 C3.04198094 222.95839958 -0.69772187 223.34074336 -4.4375 223.72265625 C-7.03387454 223.99007221 -9.63022845 224.2576886 -12.2265625 224.52549744 C-17.68053009 225.08738366 -23.1348467 225.64578642 -28.58935547 226.20239258 C-34.87566902 226.84394631 -41.16128494 227.4920244 -47.44658375 228.1434384 C-53.50519412 228.77111054 -59.56437865 229.39305831 -65.62380981 230.01275444 C-68.19467122 230.27632896 -70.76537294 230.54146594 -73.33590698 230.80821419 C-76.94220726 231.18180297 -80.5491167 231.54886044 -84.15625 231.91430664 C-85.21119156 232.02494446 -86.26613312 232.13558228 -87.3530426 232.24957275 C-100.90520997 233.60470036 -100.90520997 233.60470036 -106 233 C-108.40234375 230.953125 -108.40234375 230.953125 -109.9375 228.25 C-110.46214844 227.36828125 -110.98679687 226.4865625 -111.52734375 225.578125 C-112.01332031 224.72734375 -112.49929687 223.8765625 -113 223 C-113.55816406 222.27296875 -114.11632813 221.5459375 -114.69140625 220.796875 C-116 219 -116 219 -116 217 C-116.66 217 -117.32 217 -118 217 C-119.3046875 215.15625 -119.3046875 215.15625 -120.875 212.5 C-124.52287354 206.56160122 -128.63021094 201.06815823 -132.91162109 195.57226562 C-135.52896229 192.16575512 -137.67778983 189.15093858 -139 185 C-139.99 185.33 -140.98 185.66 -142 186 C-142 184.68 -142 183.36 -142 182 C-143.6771674 179.49317 -145.38250786 177.16982614 -147.25 174.8125 C-148.3602252 173.37405445 -149.46823202 171.93389446 -150.57421875 170.4921875 C-151.14446777 169.7506543 -151.7147168 169.00912109 -152.30224609 168.24511719 C-154.9790035 164.70536149 -157.52250484 161.07604098 -160.0625 157.4375 C-164.46959831 151.14174893 -168.95654876 144.91283425 -173.52368164 138.73217773 C-179.01839528 131.29243272 -179.01839528 131.29243272 -178.79345703 127.71655273 C-178.00158934 124.00744446 -176.88623925 120.97558493 -175.3046875 117.53515625 C-174.90228851 116.64908691 -174.90228851 116.64908691 -174.49176025 115.74511719 C-173.62772955 113.84702739 -172.75153076 111.95484497 -171.875 110.0625 C-171.27493311 108.75035074 -170.67581609 107.43776668 -170.07763672 106.12475586 C-169.19169314 104.18056915 -168.30510613 102.23670973 -167.41494751 100.29444885 C-165.25354562 95.57710836 -163.16815669 90.83190591 -161.125 86.0625 C-159.06303027 81.30879639 -156.85869175 76.67597636 -154.5 72.0625 C-150.51187 64.23997744 -147.24721514 56.1525827 -144 48 C-144.96099609 46.89978516 -144.96099609 46.89978516 -145.94140625 45.77734375 C-148.80608148 41.91247831 -149.2008501 38.73671483 -149 34 C-147.73724492 30.06317532 -146.40483097 28.3577576 -143.3125 25.625 C-139.1253016 23.57090267 -136.6073073 23.68225467 -132 24 C-131.896875 23.319375 -131.79375 22.63875 -131.6875 21.9375 C-130.79585305 18.12773576 -130.09087126 15.35806597 -128 12 C-122.28467809 9.31979551 -115.07111935 9.762149 -108.88525391 9.46337891 C-100.48822036 9.03714268 -92.12188605 8.25972208 -83.75 7.5 C-83.01127655 7.43410675 -82.2725531 7.3682135 -81.51144409 7.30032349 C-79.37712682 7.10955794 -77.24320918 6.91483804 -75.109375 6.71875 C-73.86124023 6.60466797 -72.61310547 6.49058594 -71.32714844 6.37304688 C-68.13138418 6.06466196 -68.13138418 6.06466196 -65.54223633 5.5 C-62.12167599 4.82725367 -58.68439915 4.56321531 -55.21484375 4.28125 C-53.69986938 4.15234856 -52.18489544 4.02344216 -50.66992188 3.89453125 C-48.29784253 3.69622237 -45.92567402 3.49901904 -43.5534668 3.30224609 C-41.25285747 3.11042949 -38.9526023 2.91472129 -36.65234375 2.71875 C-35.59127663 2.6327655 -35.59127663 2.6327655 -34.5087738 2.54504395 C-31.23952933 2.26569886 -28.1680751 1.84005377 -25 1 C-22.64624351 0.95605589 -20.29133355 0.96039817 -17.9375 1 C-11.8981824 1.10139463 -5.86312716 -1.45223482 0 0 Z " fill="#A7E0EE" transform="translate(3811,145)"/>
<path d="M0 0 C60.06 0 120.12 0 182 0 C180.21398196 3.57203608 178.93313183 5.43350965 176 8 C175.34 8 174.68 8 174 8 C174 8.66 174 9.32 174 10 C172.77734375 11.234375 172.77734375 11.234375 170.9375 12.75 C167.95697328 15.26951 165.06775876 17.85651061 162.234375 20.5390625 C161.56929932 21.16844727 160.90422363 21.79783203 160.21899414 22.44628906 C158.87376671 23.72345487 157.53175363 25.00401561 156.19311523 26.28808594 C155.56606689 26.88137695 154.93901855 27.47466797 154.29296875 28.0859375 C153.7311792 28.6226709 153.16938965 29.1594043 152.59057617 29.71240234 C151 31 151 31 148 32 C147.67 32.99 147.34 33.98 147 35 C145.328125 36.68359375 145.328125 36.68359375 143.25 38.4375 C142.53328125 39.0459375 141.8165625 39.654375 141.078125 40.28125 C138.73985682 42.21515601 136.39123933 44.13184428 134 46 C135.2530042 52.75778554 136.82642974 59.34069294 138.75 65.9375 C139.01095459 66.84282471 139.27190918 67.74814941 139.54077148 68.6809082 C141.2934564 74.71209815 143.14805456 80.70594647 145.0625 86.6875 C147.09838436 93.05648952 149.05111275 99.4418075 150.875 105.875 C151.090354 106.61838623 151.30570801 107.36177246 151.52758789 108.12768555 C152.56586308 111.85128863 153.38060445 115.14045083 153 119 C151.73413086 120.81762695 151.73413086 120.81762695 149.96484375 122.48828125 C149.00227661 123.41870239 149.00227661 123.41870239 148.02026367 124.36791992 C147.33295166 125.00963135 146.64563965 125.65134277 145.9375 126.3125 C144.55566659 127.64675652 143.17543731 128.98267652 141.796875 130.3203125 C140.8059082 131.27405762 140.8059082 131.27405762 139.79492188 132.24707031 C134.13941627 137.60992078 134.13941627 137.60992078 130.08203125 144.14453125 C129 146 129 146 127.2421875 146.75390625 C124.50776635 147.05402564 121.87539811 147.01637675 119.125 146.9375 C113.31078892 146.8925282 107.88767828 147.52696295 102.15625 148.43359375 C97.02308843 149.18749496 91.8581423 149.5399179 86.6875 149.9375 C78.22036994 150.59717252 69.80248375 151.44910332 61.375 152.5 C53.30009673 153.50124513 45.22667174 154.42931844 37.125 155.1875 C36.26438965 155.27128906 35.4037793 155.35507813 34.51708984 155.44140625 C29.14109455 155.92680454 23.83235706 156.06495653 18.43481445 155.99804688 C14.67473309 156.00106308 12.33568433 156.16196986 9 158 C7.97684876 160.56435348 7.97684876 160.56435348 7.1875 163.5 C6.2890625 166.5078125 6.2890625 166.5078125 5 169 C2.421068 170.11783059 0.20079005 170.36092623 -2.5859375 170.64453125 C-5.27149521 170.86247429 -5.27149521 170.86247429 -8.0625 173.0625 C-10.65474589 176.99267926 -11.30554696 180.31769935 -11 185 C-9.67298898 188.41231406 -8.02640652 190.96039021 -6 194 C-6.76066301 196.36366709 -7.58826927 198.41027851 -8.6484375 200.63671875 C-8.93981598 201.27615921 -9.23119446 201.91559967 -9.53140259 202.57441711 C-10.46638318 204.61832709 -11.4203352 206.65272072 -12.375 208.6875 C-13.01168469 210.07038044 -13.64711769 211.45383791 -14.28125 212.83789062 C-15.83969034 216.23207949 -17.4152667 219.61799344 -19 223 C-22.67898637 221.2977896 -24.66833642 219.34972995 -27.3125 216.25 C-30.07985398 213.07945537 -32.80948546 210.17117454 -36.0625 207.5 C-37.031875 206.675 -38.00125 205.85 -39 205 C-39 204.34 -39 203.68 -39 203 C-39.99 202.67 -40.98 202.34 -42 202 C-42 201.34 -42 200.68 -42 200 C-42.99 199.6596875 -42.99 199.6596875 -44 199.3125 C-46.39741451 198.26363115 -48.22409529 197.24017474 -50.375 195.8125 C-68.62415454 184.22736256 -89.37724726 178.6096447 -110.875 178.75 C-112.05191406 178.74226562 -113.22882812 178.73453125 -114.44140625 178.7265625 C-147.21703035 178.79867608 -172.49754392 193.4473448 -195.125 216.0625 C-197.0878327 218.03730451 -199.04500304 220.01742472 -201 222 C-201.66 221.34 -202.32 220.68 -203 220 C-202.57589844 219.52691406 -202.15179687 219.05382812 -201.71484375 218.56640625 C-198.51032623 214.95340079 -195.45007483 211.30977776 -192.5625 207.4375 C-189.72908697 203.73954892 -186.67263667 200.85269614 -183.10546875 197.87890625 C-179.84711231 194.97117072 -177.04318527 191.68775926 -174.16015625 188.4140625 C-172.29025301 186.32436954 -170.37695179 184.33664403 -168.375 182.375 C-163.88034354 177.9533426 -159.72987019 173.23865554 -155.875 168.25 C-154 166 -154 166 -151.6328125 164.16796875 C-148.97603511 161.9802663 -147.09502106 159.78357227 -145 157.0625 C-140.87027787 151.89689439 -136.38909726 147.27463006 -131.67578125 142.64257812 C-126.57832362 137.62345022 -121.91957916 132.33290905 -117.375 126.8125 C-114.54009037 123.45537018 -111.47876635 120.41402774 -108.3046875 117.37890625 C-105.41328678 114.56886529 -102.8013612 111.86206093 -100.5625 108.5 C-98.17999454 104.9926395 -95.2764511 102.52816349 -92.04296875 99.81640625 C-89.33423054 97.40806348 -87.05559903 94.72882426 -84.71484375 91.96875 C-83.04829644 90.05544739 -81.31172809 88.27541283 -79.5 86.5 C-77.1276321 84.17277007 -74.89772903 81.78061742 -72.73046875 79.26171875 C-69.18606239 75.18541733 -65.52240007 71.23794953 -61.8125 67.3125 C-60.48919194 65.9066183 -59.16628028 64.50036339 -57.84375 63.09375 C-57.1940625 62.4028125 -56.544375 61.711875 -55.875 61 C-51.70939005 56.55668272 -47.58897057 52.07161843 -43.46484375 47.58984375 C-41.94762755 45.94315843 -40.4273525 44.29934569 -38.90625 42.65625 C-26.93670126 29.72419737 -26.93670126 29.72419737 -15.41015625 16.3984375 C-14 15 -14 15 -12 15 C-11.76410156 14.43539063 -11.52820312 13.87078125 -11.28515625 13.2890625 C-9.70765058 10.47928037 -7.75948714 8.60380949 -5.4375 6.375 C-2.30957946 3.48929319 -2.30957946 3.48929319 0 0 Z " fill="#5FC5E0" transform="translate(3674,0)"/>
<path d="M0 0 C2.97276957 1.48638479 3.08443143 3.53038443 4.1875 6.625 C6.03402967 11.58687359 8.03790038 16.40432003 10.3125 21.1875 C12.87825004 26.59724764 15.38411692 32.02704073 17.8125 37.5 C18.14024414 38.23863281 18.46798828 38.97726562 18.80566406 39.73828125 C21.15302269 45.04730248 23.46372221 50.37183365 25.76904297 55.69921875 C30.32887561 66.23382645 35.01245279 76.68128929 39.97460938 87.03320312 C40.64322801 88.42863737 41.30968236 89.82511085 41.97387695 91.22265625 C42.6001218 92.54019798 43.23120929 93.85545269 43.86791992 95.16796875 C45.20436703 97.98494806 46 99.83822819 46 103 C46.66 103.33 47.32 103.66 48 104 C48.72031319 105.64419315 49.37191143 107.31841534 50 109 C50.56765683 110.30942688 51.14386817 111.61516395 51.7265625 112.91796875 C52.0359375 113.61470703 52.3453125 114.31144531 52.6640625 115.02929688 C53.31033527 116.48078349 53.95881169 117.93129073 54.609375 119.38085938 C57 124.77985491 57 124.77985491 57 127 C57.99 127.33 58.98 127.66 60 128 C60.061875 128.928125 60.12375 129.85625 60.1875 130.8125 C60.81926975 135.48376721 62.89551321 139.44262627 64.94140625 143.64453125 C66 146 66 146 66 148 C66.51046875 147.81566406 67.0209375 147.63132812 67.546875 147.44140625 C70.94266536 146.83038028 73.85084167 147.4024473 77.25 147.9375 C79.14492187 148.22947266 79.14492187 148.22947266 81.078125 148.52734375 C82.04234375 148.68332031 83.0065625 148.83929687 84 149 C80.40599126 152.74822927 76.64927885 155.94813409 72.5 159.0625 C67.85145583 162.5838804 67.85145583 162.5838804 63.26953125 166.19140625 C60.61780561 168.30457143 57.82127823 170.11914785 55 172 C53.76656073 172.93187152 52.53771168 173.86983713 51.3125 174.8125 C39.30718085 183.89760638 39.30718085 183.89760638 33 186 C33.38671875 186.75023438 33.7734375 187.50046875 34.171875 188.2734375 C37.10761028 194.04317466 39.84050681 199.79080739 42.140625 205.84375 C42.94349847 208.02228931 42.94349847 208.02228931 44.171875 209.96875 C45.31807069 212.7801734 44.97103527 214.13415697 44 217 C42.1796875 219.76171875 42.1796875 219.76171875 39.875 222.6875 C36.99305346 226.40068944 34.16558283 230.12677049 31.5 234 C29.03245919 237.56046985 26.48632427 241.04355623 23.875 244.5 C18.33536574 251.84213877 12.96883229 259.30612422 7.60449219 266.77685547 C6.06269767 268.91312766 4.50665067 271.03814185 2.9453125 273.16015625 C2.47794678 273.80033691 2.01058105 274.44051758 1.52905273 275.10009766 C0.65645758 276.2952116 -0.22137374 277.48652592 -1.10522461 278.67333984 C-3.52911971 281.97669235 -3.52911971 281.97669235 -4 286 C-4.969375 286.804375 -5.93875 287.60875 -6.9375 288.4375 C-10.15160704 291.12685487 -10.19405041 291.31565901 -11 295 C-12.16381213 296.13594922 -13.32829326 297.27121985 -14.49584961 298.40332031 C-17.51710378 301.61042992 -19.95921416 305.2848873 -22.5 308.875 C-23.05558594 309.65230469 -23.61117188 310.42960937 -24.18359375 311.23046875 C-25.27543275 312.75904335 -26.36407111 314.28991009 -27.44921875 315.82324219 C-28.46113952 317.24362719 -29.48413979 318.65620232 -30.51953125 320.05957031 C-33.11385329 323.1985085 -33.11385329 323.1985085 -34 327 C-35.6436814 328.68933922 -37.3142876 330.35259924 -39 332 C-39.53625 332.928125 -40.0725 333.85625 -40.625 334.8125 C-43.95210101 337.87693514 -46.18627757 337.26816591 -50.57644653 337.17764282 C-57.45947812 336.8204931 -64.30081824 336.08251458 -71.15234375 335.35546875 C-72.81827448 335.18281735 -74.48425571 335.01065268 -76.15028381 334.83894348 C-80.52774286 334.3864128 -84.9044645 333.92710156 -89.28106689 333.46636963 C-93.63680411 333.00910879 -97.99324194 332.55863138 -102.34960938 332.10742188 C-121.57085609 330.11339714 -140.78733191 328.07503423 -160 326 C-156.67480466 322.6289351 -153.37218934 319.6288168 -149.5625 316.8125 C-148.50933594 316.03390625 -147.45617188 315.2553125 -146.37109375 314.453125 C-139.34588072 309.32523228 -132.25528106 304.28798465 -125.140625 299.28515625 C-124.5101123 298.83970459 -123.87959961 298.39425293 -123.22998047 297.93530273 C-122.02823094 297.0864228 -120.82425994 296.24067556 -119.61767578 295.39868164 C-117.23901685 293.71581375 -115.06209025 292.06456397 -113.0390625 289.9609375 C-110.83550693 287.84180935 -108.48823392 286.48820033 -105.81591797 285.02734375 C-102.9227618 283.39055951 -100.24939734 281.449178 -97.5625 279.5 C-96.96977295 279.07420654 -96.3770459 278.64841309 -95.76635742 278.2097168 C-91.06211818 274.81333321 -86.43680331 271.31645974 -81.8125 267.8125 C-76.58375894 263.85054143 -71.28319275 260.20618822 -65.6953125 256.76171875 C-62.57102851 254.71961428 -59.62662374 252.48310016 -56.6875 250.1875 C-52.01713547 246.54024795 -47.30502095 242.96863442 -42.5 239.5 C-41.92467529 239.07871826 -41.34935059 238.65743652 -40.7565918 238.22338867 C-37.62241549 235.97640836 -34.65148039 234.25349327 -31 233 C-31 232.34 -31 231.68 -31 231 C-29.171875 229.6328125 -29.171875 229.6328125 -26.75 228.125 C-24.18000261 226.47828317 -22.06804322 225.07010513 -19.9375 222.875 C-18.04273383 221.04135532 -16.73358273 220.32847719 -14.375 219.25 C-11.12170522 217.70024867 -8.5213669 215.92631173 -5.75 213.625 C-0.71622381 209.45750158 4.57184322 205.72790661 9.9375 202 C10.80890625 201.39188477 11.6803125 200.78376953 12.578125 200.15722656 C16.28538483 197.57248923 19.997904 194.99752714 23.73828125 192.4609375 C24.73214844 191.77257813 25.72601562 191.08421875 26.75 190.375 C27.59046875 189.80523438 28.4309375 189.23546875 29.296875 188.6484375 C29.85890625 188.10445312 30.4209375 187.56046875 31 187 C31 185.68 31 184.36 31 183 C30.34 182.67 29.68 182.34 29 182 C28.09228516 180.08837891 28.09228516 180.08837891 27.1640625 177.6015625 C25.05571805 172.11831525 22.74906798 166.74784293 20.375 161.375 C19.91407959 160.32868408 19.45315918 159.28236816 18.97827148 158.2043457 C15.91611321 151.27456015 12.81666792 144.36210934 9.69921875 137.45703125 C9.32271179 136.62298264 8.94620483 135.78893402 8.55828857 134.92961121 C7.00274176 131.48419129 5.44715294 128.03879079 3.89056396 124.59384155 C-1.71268218 112.18623551 -7.19472659 99.73598715 -12.47241211 87.1862793 C-12.91464111 86.13867432 -13.35687012 85.09106934 -13.8125 84.01171875 C-14.19019531 83.10897217 -14.56789063 82.20622559 -14.95703125 81.27612305 C-16.01886061 78.8008978 -16.01886061 78.8008978 -18 76 C-20.84731711 75.30141725 -20.84731711 75.30141725 -24.22265625 75.05078125 C-25.48400391 74.92509766 -26.74535156 74.79941406 -28.04492188 74.66992188 C-29.03576782 74.58182251 -29.03576782 74.58182251 -30.04663086 74.49194336 C-32.03172928 74.31523907 -34.01494123 74.11774035 -35.99804688 73.91992188 C-41.46627721 73.39557102 -46.87487725 72.92277426 -52.37109375 72.98046875 C-53.56863281 72.98691406 -54.76617188 72.99335938 -56 73 C-56.33 72.67 -56.66 72.34 -57 72 C-58.45730647 71.76593994 -59.92433245 71.59189866 -61.39282227 71.44335938 C-62.3279213 71.34655884 -63.26302032 71.2497583 -64.22645569 71.15002441 C-65.24613937 71.04895386 -66.26582306 70.9478833 -67.31640625 70.84375 C-68.36142807 70.7365564 -69.40644989 70.62936279 -70.48313904 70.5189209 C-73.84251756 70.17512499 -77.20247067 69.83737065 -80.5625 69.5 C-83.89740308 69.16142872 -87.23217648 68.82161706 -90.56687927 68.4810791 C-92.6447488 68.26929787 -94.72275632 68.05886477 -96.80091858 67.84997559 C-102.21130436 67.30280899 -107.60714611 66.69961348 -113 66 C-110.06137347 63.67930896 -107.05813475 61.87358551 -103.75 60.125 C-100.42975526 58.3419056 -97.17355184 56.53264684 -94 54.5 C-89.14397111 51.40440521 -84.07142759 48.72277465 -79 46 C-70.98035416 41.68776027 -63.05664846 37.25721049 -55.3984375 32.32421875 C-53 31 -53 31 -50 31 C-50 30.34 -50 29.68 -50 29 C-48.70642578 28.32517578 -48.70642578 28.32517578 -47.38671875 27.63671875 C-32.31836007 19.71791793 -17.17067796 11.44711864 -3 2 C-2.01 2 -1.02 2 0 2 C0 1.34 0 0.68 0 0 Z " fill="#FEDDA6" transform="translate(1215,1977)"/>
<path d="M0 0 C1.010625 0.763125 2.02125 1.52625 3.0625 2.3125 C7.59775463 5.71394097 12.16973615 9.06462407 16.7434082 12.4140625 C21.918685 16.20486634 27.08607494 20.00624896 32.25 23.8125 C33.04760742 24.40023193 33.84521484 24.98796387 34.66699219 25.59350586 C38.71333815 28.57559964 42.75818767 31.55969624 46.80078125 34.546875 C54.5059016 40.23733207 62.22692064 45.90263496 70 51.5 C78.57932481 57.67793934 87.09324085 63.94195155 95.59570312 70.22509766 C98.0148571 72.01096782 100.43666019 73.79318282 102.859375 75.57421875 C110.28688244 81.03584163 117.70006878 86.51338964 125.0625 92.0625 C130.65864371 96.279051 136.31031452 100.41063335 142 104.5 C149.79395362 110.10198254 157.49157628 115.82178888 165.15136719 121.60546875 C168.09604178 123.82680807 171.0481976 126.03814687 174 128.25 C175.66666667 129.5 177.33333333 130.75 179 132 C178.34 132.33 177.68 132.66 177 133 C176.71253906 133.7321875 176.42507812 134.464375 176.12890625 135.21875 C174.81757396 138.44943716 173.07895824 140.75047337 170.9375 143.5 C167.66394563 147.76447173 164.49872343 152.07823282 161.4375 156.5 C160.68339844 157.56476562 159.92929688 158.62953125 159.15234375 159.7265625 C156.92985601 162.96257875 156.92985601 162.96257875 155.25390625 166.5234375 C153.41978641 170.02828121 152.04258877 172.45604489 149 175 C142.64209456 176.41591053 135.84564342 174.82582853 129.60229492 173.48510742 C126.87312453 172.97634848 124.20526343 172.71087721 121.4375 172.5 C120.39335937 172.4175 119.34921875 172.335 118.2734375 172.25 C117.19320312 172.1675 116.11296875 172.085 115 172 C112.85395346 171.83610146 110.70810905 171.6695296 108.5625 171.5 C107.61503906 171.4278125 106.66757813 171.355625 105.69140625 171.28125 C103 171 103 171 100.57128906 170.50708008 C97.48160965 169.89776901 94.43619803 169.63960628 91.296875 169.38671875 C89.92902899 169.2742607 88.56119083 169.16170718 87.19335938 169.04907227 C86.10897583 168.96122971 86.10897583 168.96122971 85.00268555 168.87161255 C81.11019089 168.55347799 77.21926185 168.21707927 73.328125 167.8828125 C68.01549184 167.42681886 62.70262727 166.97452857 57.38867188 166.53417969 C52.67517911 166.14199288 47.96375565 165.72989174 43.25305176 165.30557251 C41.42053884 165.14377624 39.58742708 164.98862244 37.75378418 164.84017944 C35.17776175 164.63064554 32.60477982 164.39812203 30.03125 164.16015625 C29.26093445 164.10282318 28.4906189 164.04549011 27.69696045 163.98641968 C24.44236817 163.66410454 22.47272821 163.46889429 20.10351562 161.11889648 C19.73935547 160.41966064 19.37519531 159.7204248 19 159 C18.443125 157.989375 17.88625 156.97875 17.3125 155.9375 C16 153 16 153 16 150 C14.824375 150.12375 13.64875 150.2475 12.4375 150.375 C7.79979357 150.40800859 5.62977569 148.60302309 2.34765625 145.5078125 C-0.51344162 142.3067001 -0.25796025 139.35119179 -0.23828125 135.23828125 C0.07403153 132.30458904 1.48844473 130.49735218 3 128 C2.7024405 121.53020629 0.18870145 116.06535347 -2.375 110.1875 C-2.77460938 109.23423828 -3.17421875 108.28097656 -3.5859375 107.29882812 C-3.9778125 106.38939453 -4.3696875 105.47996094 -4.7734375 104.54296875 C-5.12841309 103.71821045 -5.48338867 102.89345215 -5.84912109 102.04370117 C-6.96960435 99.69322926 -6.96960435 99.69322926 -10 98 C-10 96.68 -10 95.36 -10 94 C-10.95470422 91.29589049 -10.95470422 91.29589049 -12.30859375 88.40625 C-12.80464111 87.3023291 -13.30068848 86.1984082 -13.81176758 85.06103516 C-14.34825928 83.88589355 -14.88475098 82.71075195 -15.4375 81.5 C-16.24707153 79.69668213 -16.24707153 79.69668213 -17.07299805 77.85693359 C-19.61428651 72.19787439 -22.19727503 66.55976848 -24.8359375 60.9453125 C-25.25689697 60.03974609 -25.67785645 59.13417969 -26.11157227 58.20117188 C-26.89421178 56.52229159 -27.68844621 54.8487529 -28.49584961 53.18164062 C-29.94569257 50.06519966 -31.00561292 47.773461 -30.98046875 44.30859375 C-29.70256742 41.2996707 -28.01737204 39.01175077 -26 36.4375 C-25.19691406 35.39722656 -24.39382812 34.35695313 -23.56640625 33.28515625 C-23.14633301 32.74777832 -22.72625977 32.21040039 -22.29345703 31.65673828 C-20.15177581 28.91354297 -18.04162638 26.14704251 -15.9375 23.375 C-14.80634766 21.90160156 -14.80634766 21.90160156 -13.65234375 20.3984375 C-11.81089152 18.21092124 -11.81089152 18.21092124 -12 16 C-11 15 -10 14 -9 13 C-8.5359375 12.0409375 -8.5359375 12.0409375 -8.0625 11.0625 C-6.7640361 8.54195242 -5.00002772 7.00002772 -3 5 C-1.95650161 3.36021682 -0.94392019 1.69905634 0 0 Z " fill="#FED99C" transform="translate(3753,2164)"/>
<path d="M0 0 C0.70253906 0.00386719 1.40507813 0.00773438 2.12890625 0.01171875 C2.83144531 0.00785156 3.53398438 0.00398437 4.2578125 0 C9.50229247 0.01010497 9.50229247 0.01010497 10.62890625 1.13671875 C12.52507649 1.44083644 14.43089216 1.68501907 16.33862305 1.90527344 C17.56046799 2.04922546 18.78231293 2.19317749 20.04118347 2.3414917 C20.69861227 2.4172921 21.35604107 2.4930925 22.03339195 2.57118988 C24.79499353 2.89182582 27.55463662 3.22794153 30.31448841 3.5632515 C35.45545231 4.18772638 40.59693573 4.80615062 45.74194336 5.39648438 C49.31808427 5.8074137 52.8912309 6.23890676 56.46329689 6.683815 C57.82227078 6.84920902 59.1821846 7.00706902 60.54294395 7.15706635 C74.00360894 8.64732038 74.00360894 8.64732038 78.62890625 14.13671875 C79.2421875 17.28515625 79.2421875 17.28515625 79.62890625 21.13671875 C80.83865631 24.75497785 82.331972 28.24863867 83.81640625 31.76171875 C84.19087891 32.67050781 84.56535156 33.57929688 84.95117188 34.515625 C87.51084674 40.67093083 90.26807391 46.72152994 93.07446289 52.76757812 C95.7198882 58.50134115 98.27160446 64.26810186 100.75390625 70.07421875 C101.55054688 71.84249023 101.55054688 71.84249023 102.36328125 73.64648438 C103.70245974 76.81360569 104.88609878 79.77914697 105.62890625 83.13671875 C104.16796875 86.66015625 104.16796875 86.66015625 101.62890625 89.13671875 C100.67757813 90.34908203 100.67757813 90.34908203 99.70703125 91.5859375 C98.48028385 93.08791669 97.2510827 94.58789487 96.01953125 96.0859375 C94.34829049 98.13757987 94.34829049 98.13757987 94.62890625 101.13671875 C92.9799755 102.49192462 91.30973704 103.82128596 89.62890625 105.13671875 C88.04995445 107.04850187 86.53038346 109.01052556 85.06640625 111.01171875 C84.32261719 112.01976562 83.57882812 113.0278125 82.8125 114.06640625 C81.3671378 116.09870444 79.95480272 118.15493608 78.578125 120.234375 C76.82552082 122.84396399 74.99180932 125.26720968 73.00390625 127.69921875 C69.21116128 132.38479445 65.52513185 137.14335432 61.86669922 141.93383789 C58.72596889 146.03965611 58.72596889 146.03965611 57.62890625 147.13671875 C45.34117702 147.56441087 32.96180622 146.25436539 20.73971844 145.06709671 C16.61927586 144.67009489 12.50768471 144.32403165 8.37426758 144.09423828 C-18.20633254 142.56729707 -18.20633254 142.56729707 -24.97314453 135.36859131 C-29.25794244 128.51547904 -31.46754019 121.27696339 -33.46969604 113.49536133 C-34.63489068 109.15380121 -36.31526869 105.19190244 -38.17578125 101.11328125 C-38.70668021 99.8575112 -39.23290315 98.59975164 -39.75390625 97.33984375 C-41.03164412 94.27594875 -42.30946278 91.2120965 -43.59112549 88.14984131 C-44.34573623 86.34279582 -45.09432797 84.53324055 -45.84277344 82.72363281 C-46.90700749 80.22591288 -47.99846799 77.77530972 -49.15722656 75.32324219 C-49.4453421 74.69847992 -49.73345764 74.07371765 -50.03030396 73.43002319 C-50.82966728 71.70397679 -51.64882553 69.98713736 -52.46923828 68.27099609 C-53.57157103 64.43998695 -53.03384209 62.70378937 -51.37109375 59.13671875 C-50.07930476 57.76309698 -48.73687613 56.43679338 -47.37109375 55.13671875 C-45.16469102 52.32175865 -43.0901074 49.41085358 -40.99609375 46.51171875 C-36.10363604 39.7986612 -31.12151475 33.1736694 -25.99609375 26.63671875 C-17.45452925 16.35961787 -17.45452925 16.35961787 -10.37109375 5.13671875 C-9.71109375 5.13671875 -9.05109375 5.13671875 -8.37109375 5.13671875 C-8.06171875 4.49734375 -7.75234375 3.85796875 -7.43359375 3.19921875 C-5.52732694 -0.50118152 -4.05362906 0.00781046 0 0 Z " fill="#85D3E8" transform="translate(1381.37109375,196.86328125)"/>
<path d="M0 0 C6.15261786 2.04340227 12.12033149 4.39365874 18.0579834 6.99237061 C22.82969068 9.02485351 27.58318039 10.29964955 32.65026855 11.36199951 C33.40495422 11.52232666 34.15963989 11.68265381 34.93719482 11.84783936 C37.10450674 12.30092848 39.27362624 12.7442895 41.4432373 13.18621826 C54.17041769 15.79766411 54.17041769 15.79766411 57.17370605 20.11590576 C57.44827637 21.39723389 57.72284668 22.67856201 58.0057373 23.99871826 C58.47409088 25.57279867 58.95125147 27.14427542 59.4354248 28.71356201 C59.92125909 30.4533178 60.40286187 32.19425953 60.8807373 33.93621826 C62.68996765 40.40330229 64.5357187 46.84806757 66.5682373 53.24871826 C68.97049212 60.83143753 71.24666478 68.44719938 73.45349121 76.08905029 C73.95989499 77.84019547 74.47273196 79.58947694 74.98620605 81.33856201 C75.26077637 82.29891357 75.53534668 83.25926514 75.8182373 84.24871826 C76.05155762 85.05824951 76.28487793 85.86778076 76.52526855 86.70184326 C77.06463809 89.28029275 77.23024984 91.36817968 77.0057373 93.99871826 C75.73986816 95.81634521 75.73986816 95.81634521 73.97058105 97.48699951 C73.32886963 98.10728027 72.6871582 98.72756104 72.02600098 99.36663818 C71.33868896 100.00834961 70.65137695 100.65006104 69.9432373 101.31121826 C68.56140389 102.64547479 67.18117461 103.98139478 65.8026123 105.31903076 C64.81164551 106.27277588 64.81164551 106.27277588 63.80065918 107.24578857 C58.14515358 112.60863904 58.14515358 112.60863904 54.08776855 119.14324951 C53.0057373 120.99871826 53.0057373 120.99871826 51.2479248 121.75262451 C48.51350366 122.05274391 45.88113541 122.01509502 43.1307373 121.93621826 C37.31652622 121.89124646 31.89341559 122.52568121 26.1619873 123.43231201 C21.02882573 124.18621323 15.8638796 124.53863617 10.6932373 124.93621826 C2.22612353 125.59588952 -6.19182644 126.44750061 -14.6192627 127.49871826 C-22.77696556 128.51308144 -30.93284648 129.43458781 -39.1192627 130.18621826 C-40.01338867 130.27000732 -40.90751465 130.35379639 -41.82873535 130.44012451 C-46.57268089 130.86188936 -51.23184982 131.082609 -55.9942627 130.99871826 C-55.0042627 130.00871826 -54.0142627 129.01871826 -52.9942627 127.99871826 C-53.31588379 126.9033374 -53.63750488 125.80795654 -53.96887207 124.67938232 C-56.85972217 114.830585 -59.74423981 104.97995811 -62.62030029 95.12683105 C-63.85991435 90.88015084 -65.10053149 86.63378874 -66.34777832 82.38934326 C-67.48730237 78.51125338 -68.61657932 74.63026767 -69.7442627 70.74871826 C-70.07877441 69.61595459 -70.41328613 68.48319092 -70.75793457 67.31610107 C-71.0576416 66.2780835 -71.35734863 65.24006592 -71.6661377 64.17059326 C-71.92491699 63.28468506 -72.18369629 62.39877686 -72.45031738 61.48602295 C-73.01956288 58.88302783 -73.18745064 56.65441977 -72.9942627 53.99871826 C-71.63879395 51.93621826 -71.63879395 51.93621826 -69.8067627 49.99871826 C-69.21508301 49.35934326 -68.62340332 48.71996826 -68.01379395 48.06121826 C-66.66187095 46.68053095 -65.28339742 45.32537498 -63.88049316 43.996521 C-61.48474298 41.60570702 -59.36491417 39.04843579 -57.2376709 36.41693115 C-22.42895376 -6.54716818 -22.42895376 -6.54716818 0 0 Z " fill="#6FCCE3" transform="translate(3749.9942626953125,25.00128173828125)"/>
<path d="M0 0 C4.37713164 0.53437155 6.75346113 2.03448297 10.1875 4.75 C11.24330831 5.57092176 12.30070464 6.38980375 13.359375 7.20703125 C13.93623047 7.65385254 14.51308594 8.10067383 15.10742188 8.56103516 C18.66145672 11.26323864 22.30698909 13.83954417 25.9375 16.4375 C32.23218906 20.96042306 38.41379516 25.58869523 44.53515625 30.34375 C51.91444001 36.03865584 59.4814073 41.4914061 67 47 C67.7213916 47.52867676 68.4427832 48.05735352 69.18603516 48.60205078 C69.87358887 49.10591309 70.56114258 49.60977539 71.26953125 50.12890625 C72.26557373 50.85895874 72.26557373 50.85895874 73.28173828 51.60375977 C74.49710618 52.4941888 75.71288385 53.38405899 76.92919922 54.27319336 C82.58909711 58.41548682 88.19114502 62.63387363 93.7890625 66.859375 C100.85160929 72.18521502 107.95276493 77.43770821 115.17749023 82.54174805 C119.30687003 85.46989731 123.30237165 88.53060794 127.23046875 91.72265625 C129.08227314 93.19345496 129.08227314 93.19345496 132 94 C133.15714215 95.16978851 134.31183157 96.34214357 135.45166016 97.52880859 C138.56796555 100.48983923 142.1782229 102.84461298 145.6875 105.3125 C151.67673895 109.56974353 157.52261845 113.88318586 163.15234375 118.609375 C165.05546338 120.19505991 165.05546338 120.19505991 168 121 C168 121.66 168 122.32 168 123 C168.57999756 123.27295898 169.15999512 123.54591797 169.75756836 123.82714844 C171.97502707 124.98693849 173.87329231 126.27259253 175.87890625 127.765625 C176.6258374 128.31903564 177.37276855 128.87244629 178.14233398 129.44262695 C178.94098877 130.03906006 179.73964355 130.63549316 180.5625 131.25 C182.27336004 132.51963563 183.98429985 133.78916379 185.6953125 135.05859375 C187.01063965 136.03675049 187.01063965 136.03675049 188.35253906 137.03466797 C192.53728612 140.1411982 196.73824722 143.22562365 200.9375 146.3125 C209.46200628 152.57947348 209.46200628 152.57947348 213.61328125 155.73828125 C219.56128099 160.3177551 219.56128099 160.3177551 225.9375 164.25 C229 166 229 166 231.19140625 168.24609375 C234.54602919 171.53539719 238.16340816 174.11892878 242 176.8125 C249.237207 181.96605089 256.36846953 187.2430086 263.4375 192.625 C264.79584961 193.65524292 264.79584961 193.65524292 266.18164062 194.70629883 C267.02791016 195.35236084 267.87417969 195.99842285 268.74609375 196.6640625 C269.49560303 197.23592285 270.2451123 197.8077832 271.01733398 198.39697266 C272.80659318 199.8436265 274.389472 201.36170212 276 203 C267.80190895 203.28050676 259.60588489 203.49245901 251.40415192 203.62174606 C247.59369633 203.68386459 243.78656768 203.76779069 239.97802734 203.90527344 C209.78881477 204.96680624 209.78881477 204.96680624 199.4934082 195.59869385 C198.45406615 194.56738264 197.43140395 193.51887377 196.42959595 192.45106506 C194.24999319 190.23872987 191.7470669 188.55527319 189.1875 186.8125 C185.57338957 184.20410185 182.11222454 181.47727785 178.6875 178.625 C173.96163343 174.7036801 169.06434445 171.12577448 164.05151367 167.58813477 C159.25185621 164.19746641 154.60013085 160.65748109 150 157 C141.00228718 149.8481976 131.88295466 142.91417669 122.5859375 136.15576172 C117.24562728 132.26397776 112.01387308 128.24038799 106.8046875 124.17578125 C98.17600084 117.48193937 89.49631328 110.8519082 80.75 104.3125 C73.3288753 98.76182226 65.94926068 93.15196887 58.69921875 87.37890625 C51.26944409 81.47000958 43.69790524 75.81774926 35.95239258 70.3269043 C35.22173584 69.80652588 34.4910791 69.28614746 33.73828125 68.75 C33.08899658 68.29109375 32.43971191 67.8321875 31.77075195 67.359375 C30.02359469 66.01811323 28.54038886 64.57014969 27 63 C25.31204994 61.70221545 23.60108441 60.43411652 21.875 59.1875 C20.90691406 58.48753906 19.93882812 57.78757812 18.94140625 57.06640625 C15.55050485 54.68421921 12.09272828 52.42766502 8.58203125 50.2265625 C8.05996094 49.82179688 7.53789062 49.41703125 7 49 C7 48.34 7 47.68 7 47 C6.45730469 46.75636719 5.91460938 46.51273438 5.35546875 46.26171875 C2.44352112 44.70191927 -0.0566596 42.8105631 -2.6875 40.8125 C-3.73808594 40.01585938 -4.78867188 39.21921875 -5.87109375 38.3984375 C-9.9306438 35.2866226 -13.97726229 32.15927128 -18 29 C-17.62303749 23.60734192 -14.47113111 20.26376473 -11.25 16.1875 C-7.16836804 10.96041005 -3.40497434 5.6961987 0 0 Z " fill="#FEB033" transform="translate(3930,2297)"/>
<path d="M0 0 C2.97276957 1.48638479 3.08443143 3.53038443 4.1875 6.625 C6.03402967 11.58687359 8.03790038 16.40432003 10.3125 21.1875 C12.87825004 26.59724764 15.38411692 32.02704073 17.8125 37.5 C18.14024414 38.23863281 18.46798828 38.97726562 18.80566406 39.73828125 C21.15302269 45.04730248 23.46372221 50.37183365 25.76904297 55.69921875 C30.32887561 66.23382645 35.01245279 76.68128929 39.97460938 87.03320312 C40.64322801 88.42863737 41.30968236 89.82511085 41.97387695 91.22265625 C42.6001218 92.54019798 43.23120929 93.85545269 43.86791992 95.16796875 C45.20436703 97.98494806 46 99.83822819 46 103 C46.66 103.33 47.32 103.66 48 104 C48.72031319 105.64419315 49.37191143 107.31841534 50 109 C50.56765683 110.30942688 51.14386817 111.61516395 51.7265625 112.91796875 C52.0359375 113.61470703 52.3453125 114.31144531 52.6640625 115.02929688 C53.31033527 116.48078349 53.95881169 117.93129073 54.609375 119.38085938 C57 124.77985491 57 124.77985491 57 127 C57.99 127.33 58.98 127.66 60 128 C60.061875 128.928125 60.12375 129.85625 60.1875 130.8125 C60.81926975 135.48376721 62.89551321 139.44262627 64.94140625 143.64453125 C66 146 66 146 66 148 C66.51046875 147.81566406 67.0209375 147.63132812 67.546875 147.44140625 C70.94266536 146.83038028 73.85084167 147.4024473 77.25 147.9375 C79.14492187 148.22947266 79.14492187 148.22947266 81.078125 148.52734375 C82.04234375 148.68332031 83.0065625 148.83929687 84 149 C80.40599126 152.74822927 76.64927885 155.94813409 72.5 159.0625 C67.85145583 162.5838804 67.85145583 162.5838804 63.26953125 166.19140625 C60.61780561 168.30457143 57.82127823 170.11914785 55 172 C53.76656073 172.93187152 52.53771168 173.86983713 51.3125 174.8125 C45.26356011 179.39291113 38.86043577 183.73007267 32 187 C31.87625 186.360625 31.7525 185.72125 31.625 185.0625 C31.41875 184.381875 31.2125 183.70125 31 183 C30.34 182.67 29.68 182.34 29 182 C28.09228516 180.08837891 28.09228516 180.08837891 27.1640625 177.6015625 C25.05571805 172.11831525 22.74906798 166.74784293 20.375 161.375 C19.91407959 160.32868408 19.45315918 159.28236816 18.97827148 158.2043457 C15.91611321 151.27456015 12.81666792 144.36210934 9.69921875 137.45703125 C9.32271179 136.62298264 8.94620483 135.78893402 8.55828857 134.92961121 C7.00274176 131.48419129 5.44715294 128.03879079 3.89056396 124.59384155 C-1.71268218 112.18623551 -7.19472659 99.73598715 -12.47241211 87.1862793 C-12.91464111 86.13867432 -13.35687012 85.09106934 -13.8125 84.01171875 C-14.19019531 83.10897217 -14.56789063 82.20622559 -14.95703125 81.27612305 C-16.01886061 78.8008978 -16.01886061 78.8008978 -18 76 C-20.84731711 75.30141725 -20.84731711 75.30141725 -24.22265625 75.05078125 C-25.48400391 74.92509766 -26.74535156 74.79941406 -28.04492188 74.66992188 C-28.70548584 74.61118896 -29.3660498 74.55245605 -30.04663086 74.49194336 C-32.03172928 74.31523907 -34.01494123 74.11774035 -35.99804688 73.91992188 C-41.46627721 73.39557102 -46.87487725 72.92277426 -52.37109375 72.98046875 C-53.56863281 72.98691406 -54.76617188 72.99335938 -56 73 C-56.33 72.67 -56.66 72.34 -57 72 C-58.45730647 71.76593994 -59.92433245 71.59189866 -61.39282227 71.44335938 C-62.3279213 71.34655884 -63.26302032 71.2497583 -64.22645569 71.15002441 C-65.75598122 70.99841858 -65.75598122 70.99841858 -67.31640625 70.84375 C-68.36142807 70.7365564 -69.40644989 70.62936279 -70.48313904 70.5189209 C-73.84251756 70.17512499 -77.20247067 69.83737065 -80.5625 69.5 C-83.89740308 69.16142872 -87.23217648 68.82161706 -90.56687927 68.4810791 C-92.6447488 68.26929787 -94.72275632 68.05886477 -96.80091858 67.84997559 C-102.21130436 67.30280899 -107.60714611 66.69961348 -113 66 C-110.06137347 63.67930896 -107.05813475 61.87358551 -103.75 60.125 C-100.42975526 58.3419056 -97.17355184 56.53264684 -94 54.5 C-89.14397111 51.40440521 -84.07142759 48.72277465 -79 46 C-70.98035416 41.68776027 -63.05664846 37.25721049 -55.3984375 32.32421875 C-53 31 -53 31 -50 31 C-50 30.34 -50 29.68 -50 29 C-48.70642578 28.32517578 -48.70642578 28.32517578 -47.38671875 27.63671875 C-32.31836007 19.71791793 -17.17067796 11.44711864 -3 2 C-2.01 2 -1.02 2 0 2 C0 1.34 0 0.68 0 0 Z " fill="#FED798" transform="translate(1215,1977)"/>
<path d="M0 0 C7.42644527 4.54680322 11.18983521 9.12967043 15.0625 16.875 C15.68398309 26.75897142 15.69079213 33.87384058 9.75 42.0625 C4.18837274 47.8828076 -1.58826109 50.8691119 -9.625 51.25 C-15.52449789 51.16020551 -20.5636508 49.16348331 -25.9375 46.875 C-25.9375 46.215 -25.9375 45.555 -25.9375 44.875 C-26.515 44.648125 -27.0925 44.42125 -27.6875 44.1875 C-32.49892899 41.38083309 -34.17260309 37.68478803 -35.6875 32.5 C-37.78292337 23.8288834 -36.91530525 17.81730681 -32.9375 9.875 C-31.42578125 7.57421875 -31.42578125 7.57421875 -29.9375 5.875 C-29.2775 5.875 -28.6175 5.875 -27.9375 5.875 C-27.9375 5.215 -27.9375 4.555 -27.9375 3.875 C-21.07231943 -2.46208976 -8.52002611 -3.27246457 0 0 Z " fill="#CAE6F3" transform="translate(3611.9375,229.125)"/>
<path d="M0 0 C1.15341698 2.22552258 2.29781159 4.45495969 3.4375 6.6875 C3.76298828 7.31333984 4.08847656 7.93917969 4.42382812 8.58398438 C6.17752313 12.03713639 7.47760497 15.15193519 8 19 C8.51046875 18.81566406 9.0209375 18.63132812 9.546875 18.44140625 C12.94266536 17.83038028 15.85084167 18.4024473 19.25 18.9375 C20.51328125 19.13214844 21.7765625 19.32679688 23.078125 19.52734375 C24.04234375 19.68332031 25.0065625 19.83929687 26 20 C22.40599126 23.74822927 18.64927885 26.94813409 14.5 30.0625 C9.85145583 33.5838804 9.85145583 33.5838804 5.26953125 37.19140625 C2.61780561 39.30457143 -0.17872177 41.11914785 -3 43 C-4.23343927 43.93187152 -5.46228832 44.86983713 -6.6875 45.8125 C-12.73643989 50.39291113 -19.13956423 54.73007267 -26 58 C-26.12375 57.360625 -26.2475 56.72125 -26.375 56.0625 C-26.58125 55.381875 -26.7875 54.70125 -27 54 C-27.66 53.67 -28.32 53.34 -29 53 C-29.859375 51.20703125 -29.859375 51.20703125 -30.75 48.8125 C-32.90608818 43.13124862 -35.3972314 37.62396434 -37.92578125 32.1015625 C-39 29 -39 29 -39.0625 26.8828125 C-37.33825404 23.82734724 -34.53577294 22.1667034 -31.6875 20.25 C-31.05811523 19.81389404 -30.42873047 19.37778809 -29.78027344 18.9284668 C-27.8623694 17.60538327 -25.93379148 16.2997286 -24 15 C-22.92878906 14.27941406 -21.85757812 13.55882813 -20.75390625 12.81640625 C-18.78524228 11.50311026 -16.81270677 10.19559521 -14.8359375 8.89453125 C-11.14903069 6.43151499 -7.55058561 3.85220445 -3.9609375 1.25 C-2 0 -2 0 0 0 Z " fill="#FEC977" transform="translate(1273,2106)"/>
<path d="M0 0 C0.66 0 1.32 0 2 0 C2.18175781 0.67546875 2.36351563 1.3509375 2.55078125 2.046875 C2.80214844 2.93890625 3.05351562 3.8309375 3.3125 4.75 C3.67794922 6.07257813 3.67794922 6.07257813 4.05078125 7.421875 C5.01319148 10.41570448 5.01319148 10.41570448 8 14 C3.71 23.57 -0.58 33.14 -5 43 C-8.97638251 41.01180875 -10.49418404 39.55388727 -13.3125 36.25 C-16.96481141 32.0776575 -20.69246271 28.48268972 -25 25 C-20.74369692 19.86739923 -16.26191802 15.2190943 -11.375 10.6875 C-10.72015625 10.06810547 -10.0653125 9.44871094 -9.390625 8.81054688 C-8.75382812 8.21693359 -8.11703125 7.62332031 -7.4609375 7.01171875 C-6.89165527 6.48022217 -6.32237305 5.94872559 -5.73583984 5.40112305 C-3.91839653 3.93413188 -2.12048691 2.96504503 0 2 C0 1.34 0 0.68 0 0 Z " fill="#6DC9E2" transform="translate(3660,180)"/>
<path d="M0 0 C4.12041208 1.55660012 6.29237123 4.04776106 8.3359375 7.96875 C9.57464054 11.757724 9.1120423 15.22472262 8 19 C5.78380806 22.59175934 3.83962753 24.3755422 0 26 C-4.00702589 26.77029703 -7.54811616 26.87813383 -11.10546875 24.7265625 C-16.80503891 19.90836917 -16.80503891 19.90836917 -17.203125 16.01171875 C-17.33257688 9.59306309 -16.27886534 6.47994169 -11.875 1.6875 C-7.85807986 -0.67025747 -4.55054293 -0.66310279 0 0 Z " fill="#FEE1C9" transform="translate(3770,2288)"/>
<path d="M0 0 C5.30850286 3.4284081 7.56030284 6.87836085 9 13 C9.56367483 16.56994057 9.65475471 18.77683185 7.93359375 21.9921875 C5.8722959 24.78926197 4.31753514 26.7355485 0.8203125 27.4375 C-1.375 27.4375 -1.375 27.4375 -5 27 C-5 26.34 -5 25.68 -5 25 C-4.34 25 -3.68 25 -3 25 C-3 24.34 -3 23.68 -3 23 C-3.928125 22.979375 -4.85625 22.95875 -5.8125 22.9375 C-9 22 -9 22 -10.06640625 20.375 C-10.79974771 18.61781467 -11.40775925 16.80962451 -12 15 C-12.66 16.32 -13.32 17.64 -14 19 C-14.95465783 16.83032311 -15.14401212 15.43671207 -14.3984375 13.17578125 C-13.64129615 11.4315257 -12.82390802 9.71372869 -12 8 C-11.34 8 -10.68 8 -10 8 C-10 7.34 -10 6.68 -10 6 C-8.57421875 4.74609375 -8.57421875 4.74609375 -6.6875 3.4375 C-6.07261719 3.00308594 -5.45773437 2.56867187 -4.82421875 2.12109375 C-3 1 -3 1 0 0 Z " fill="#7BD3E2" transform="translate(708,40)"/>
<path d="M0 0 C4.07703716 0.18962964 5.75217356 0.78449875 8.875 3.5 C11.34245757 6.82188463 11.66856401 9.74994383 11.421875 13.8203125 C10.54645114 18.34333575 8.17843416 21.04451284 4.6875 23.875 C1.24656852 25.31538992 -1.30025363 25.33634058 -5 25 C-7.4375 24 -7.4375 24 -9 23 C-7.63855967 17.80177328 -5.53269829 14.90456127 -2 11 C-2.33 10.34 -2.66 9.68 -3 9 C-2.44140625 6.8359375 -2.44140625 6.8359375 -1.5625 4.375 C-1.27503906 3.55773437 -0.98757812 2.74046875 -0.69140625 1.8984375 C-0.46324219 1.27195313 -0.23507813 0.64546875 0 0 Z " fill="#B5EAF6" transform="translate(3677,170)"/>
<path d="M0 0 C4.10643101 0.07158596 6.58024304 0.44250097 9.75 3.25 C12.8015421 7.26518698 14.10448835 9.81088078 13.75 14.875 C13.05073824 18.93210286 11.93664759 21.49398047 8.75 24.25 C5.5 25.0625 5.5 25.0625 2.75 25.25 C2.42 23.6 2.09 21.95 1.75 20.25 C3.4 19.59 5.05 18.93 6.75 18.25 C6.09 15.61 5.43 12.97 4.75 10.25 C4.09 10.25 3.43 10.25 2.75 10.25 C2.42 9.59 2.09 8.93 1.75 8.25 C-0.23 8.58 -2.21 8.91 -4.25 9.25 C-5.6450848 6.95221327 -6.32438619 5.7707033 -5.9375 3.0625 C-4.68597882 -0.23696493 -3.3501472 0.06655922 0 0 Z " fill="#FEEAD8" transform="translate(3765.25,2287.75)"/>
<path d="M0 0 C-0.99 3.3 -1.98 6.6 -3 10 C-2.34 10.66 -1.68 11.32 -1 12 C-1.7425 12.495 -2.485 12.99 -3.25 13.5 C-6.65862674 16.59875158 -8.18726063 19.82766134 -10 24 C-13.55487922 21.17432678 -15.34450131 19.0229049 -16 14.5625 C-16.2356053 10.26448813 -15.5672723 7.56105513 -13 4 C-8.64775193 0.24124031 -5.69411208 -0.45552897 0 0 Z " fill="#94E1F2" transform="translate(3678,169)"/>
<path d="M0 0 C0 0.99 0 1.98 0 3 C0.66 3 1.32 3 2 3 C2.33 4.98 2.66 6.96 3 9 C1.35 9.66 -0.3 10.32 -2 11 C-2 11.99 -2 12.98 -2 14 C-2.99 14 -3.98 14 -5 14 C-5 13.34 -5 12.68 -5 12 C-5.99 11.67 -6.98 11.34 -8 11 C-9.38125018 8.23749964 -9.19079306 6.05268901 -9 3 C-6.01800145 0.01800145 -4.21244839 0 0 0 Z " fill="#FEDDB2" transform="translate(3768,2295)"/>
<path d="M0 0 C2.75 -0.3125 2.75 -0.3125 6 0 C8.4375 2.25 8.4375 2.25 10 5 C10.10207549 8.26641574 8.75382937 9.27773096 6.5625 11.75 C4 14 4 14 2 14 C2 13.34 2 12.68 2 12 C1.34 12 0.68 12 0 12 C-0.19477739 10.37585622 -0.38059458 8.75063577 -0.5625 7.125 C-0.66691406 6.22007812 -0.77132812 5.31515625 -0.87890625 4.3828125 C-1 2 -1 2 0 0 Z " fill="#FEE38F" transform="translate(793,2423)"/>
<path d="M0 0 C1.98 0 3.96 0 6 0 C6.22174933 1.45635371 6.42698698 2.91522956 6.625 4.375 C6.74101563 5.18710937 6.85703125 5.99921875 6.9765625 6.8359375 C6.98429688 7.55007812 6.99203125 8.26421875 7 9 C5 11 5 11 1.375 11.125 C0.26125 11.08375 -0.8525 11.0425 -2 11 C-3.26426661 7.20720018 -2.40145184 5.65934648 -1 2 C-0.67 1.34 -0.34 0.68 0 0 Z " fill="#A0E2E6" transform="translate(705,50)"/>
<path d="M0 0 C3.1875 2.25 3.1875 2.25 6 5 C6 5.99 6 6.98 6 8 C5.01 8 4.02 8 3 8 C3 7.34 3 6.68 3 6 C1.58297487 6.14230808 0.1663904 6.28900746 -1.25 6.4375 C-2.03890625 6.51871094 -2.8278125 6.59992187 -3.640625 6.68359375 C-5.82364639 6.97634993 -7.8773182 7.42064419 -10 8 C-10 7.34 -10 6.68 -10 6 C-8.57421875 4.74609375 -8.57421875 4.74609375 -6.6875 3.4375 C-6.07261719 3.00308594 -5.45773437 2.56867187 -4.82421875 2.12109375 C-3 1 -3 1 0 0 Z M-12 8 C-11.34 8.33 -10.68 8.66 -10 9 C-10.99 12.3 -11.98 15.6 -13 19 C-13.66 17.68 -14.32 16.36 -15 15 C-13.625 11.25 -13.625 11.25 -12 8 Z " fill="#63CADE" transform="translate(708,40)"/>
<path d="M0 0 C0.92556607 2.77669822 1.19295491 4.67696895 1.25 7.5625 C1.28867187 8.74005859 1.28867187 8.74005859 1.328125 9.94140625 C1.21984375 10.62074219 1.1115625 11.30007812 1 12 C-3.2024454 14.80163026 -6.00104935 14.14489712 -11 14 C-11.33 10.37 -11.66 6.74 -12 3 C-4.71428571 -1.71428571 -4.71428571 -1.71428571 0 0 Z M-7 1 C-9.30694043 4.46041065 -9.62056512 6.90210331 -10 11 C-8.82963695 12.39287806 -8.82963695 12.39287806 -5.5625 12.1875 C-1.94967279 12.39564928 -1.94967279 12.39564928 0 10 C0.02308597 7.77871445 0.02308597 7.77871445 -0.375 5.375 C-0.48585938 4.55773438 -0.59671875 3.74046875 -0.7109375 2.8984375 C-0.80632813 2.27195313 -0.90171875 1.64546875 -1 1 C-3.91634129 0.7497843 -3.91634129 0.7497843 -7 1 Z " fill="#8FDBE4" transform="translate(712,49)"/>
<path d="M0 0 C0.66 0.66 1.32 1.32 2 2 C-3.61 7.61 -9.22 13.22 -15 19 C-15.66 18.34 -16.32 17.68 -17 17 C-11.69831225 10.84270847 -6.45948889 4.98303428 0 0 Z " fill="#8CD6E9" transform="translate(3488,203)"/>
<path d="M0 0 C0.99 0 1.98 0 3 0 C1.70176525 3.81562395 0.25033142 6.07090879 -2.6875 8.8125 C-5.41099259 11.4282285 -7.98745697 14.0638514 -10.4375 16.9375 C-14.38435854 21.53303205 -18.67483483 25.76310351 -23 30 C-23 27 -23 27 -21.01171875 24.84375 C-20.55458496 24.41320313 -20.09745117 23.98265625 -19.62646484 23.5390625 C-16.2268179 20.32210447 -13.04288109 16.88532245 -9.8125 13.5 C-9.08869141 12.75363281 -8.36488281 12.00726562 -7.61914062 11.23828125 C-6.57983398 10.14580078 -6.57983398 10.14580078 -5.51953125 9.03125 C-4.89151611 8.37705078 -4.26350098 7.72285156 -3.61645508 7.04882812 C-1.8455096 4.80418616 -0.93326199 2.68966396 0 0 Z " fill="#FEAD30" transform="translate(1386,2438)"/>
<path d="M0 0 C0 4.33091063 -2.2910686 6.82872695 -5 10 C-9.08757496 13.94747662 -13.52444688 17.50347413 -18 21 C-16.69425831 18.08719163 -15.2925792 16.19705507 -13 14 C-12.34 13.01 -11.68 12.02 -11 11 C-10.2575 10.4225 -9.515 9.845 -8.75 9.25 C-5.38358357 6.49565928 -2.7445053 3.35753914 0 0 Z " fill="#FECA7A" transform="translate(1599,2211)"/>
<path d="M0 0 C0.33 0.99 0.66 1.98 1 3 C0.0479279 4.00596297 -0.91187346 5.00461563 -1.875 6 C-2.40867187 6.556875 -2.94234375 7.11375 -3.4921875 7.6875 C-5 9 -5 9 -7 9 C-7 8.34 -7 7.68 -7 7 C-7.66 7 -8.32 7 -9 7 C-9 5.02 -9 3.04 -9 1 C-8.67 1.66 -8.34 2.32 -8 3 C-4.28263359 3.34900558 -4.28263359 3.34900558 -1.1875 1.5 C-0.795625 1.005 -0.40375 0.51 0 0 Z " fill="#FEDF86" transform="translate(802,2428)"/>
<path d="M0 0 C0.66 0.33 1.32 0.66 2 1 C-2.53548584 4.85516296 -7.21224044 8.46386286 -12 12 C-12.66 11.67 -13.32 11.34 -14 11 C-13.236875 10.401875 -12.47375 9.80375 -11.6875 9.1875 C-9.13105098 7.1983879 -9.13105098 7.1983879 -7.5625 5.5 C-5.27884582 3.30769199 -2.65386768 1.71027028 0 0 Z M-5 6 C-5 6.99 -5 7.98 -5 9 C-5.66 8.67 -6.32 8.34 -7 8 C-6.34 7.34 -5.68 6.68 -5 6 Z " fill="#FEC95C" transform="translate(806,2432)"/>
<path d="M0 0 C2.31 0 4.62 0 7 0 C6.67 1.32 6.34 2.64 6 4 C5.34 4 4.68 4 4 4 C4 4.66 4 5.32 4 6 C2.68 5.67 1.36 5.34 0 5 C0 3.35 0 1.7 0 0 Z " fill="#FED69D" transform="translate(3761,2300)"/>
<path d="M0 0 C0.66 0.33 1.32 0.66 2 1 C-2.49865471 7.67982063 -2.49865471 7.67982063 -6.1796875 8.46484375 C-8.375 8.4375 -8.375 8.4375 -12 8 C-12 7.34 -12 6.68 -12 6 C-11.113125 5.87625 -10.22625 5.7525 -9.3125 5.625 C-6.25398258 5.04792124 -3.76356898 4.42126405 -1 3 C-0.67 2.01 -0.34 1.02 0 0 Z " fill="#6FCFE1" transform="translate(715,59)"/>
<path d="M0 0 C1.98 0 3.96 0 6 0 C6 1.65 6 3.3 6 5 C4.35 5 2.7 5 1 5 C0.67 3.35 0.34 1.7 0 0 Z " fill="#BAECEA" transform="translate(704,53)"/>
<path d="M0 0 C1.98 0 3.96 0 6 0 C5.67 1.65 5.34 3.3 5 5 C3.68 5 2.36 5 1 5 C0.67 3.35 0.34 1.7 0 0 Z " fill="#FEEC9D" transform="translate(793,2426)"/>
<path d="M0 0 C0 3 0 3 -1.53125 4.60546875 C-2.1809375 5.12753906 -2.830625 5.64960938 -3.5 6.1875 C-4.1496875 6.71730469 -4.799375 7.24710938 -5.46875 7.79296875 C-5.9740625 8.19128906 -6.479375 8.58960937 -7 9 C-7.33 7.68 -7.66 6.36 -8 5 C-7.05125 4.54625 -6.1025 4.0925 -5.125 3.625 C-1.99686321 2.19761746 -1.99686321 2.19761746 0 0 Z " fill="#FECD82" transform="translate(1572,2240)"/>
<path d="M0 0 C1.32 0 2.64 0 4 0 C4 0.99 4 1.98 4 3 C3.01 3.33 2.02 3.66 1 4 C0.34 4.66 -0.32 5.32 -1 6 C-1.625 4.125 -1.625 4.125 -2 2 C-1.34 1.34 -0.68 0.68 0 0 Z " fill="#FEE2BE" transform="translate(3764,2295)"/>
</svg>
